<svg width="24" height="24" viewBox="0 0 16 16" fill="none" xmlns="http://www.w3.org/2000/svg">
  <defs>
    <clipPath id="clip0_328_3563">
      <rect width="16" height="16"/>
    </clipPath>
  </defs>
  <g clip-path="url(#clip0_328_3563)" fill-rule="evenodd" clip-rule="evenodd" fill="currentColor">
    <path d="M3.168 7.41602L6.462 4.17702C6.686 3.99202 7.114 3.91502 7.363 4.13002C7.609 4.34102 7.602 4.75102 7.357 4.96302L5.041 7.23702H11.383C11.724 7.23702 12.001 7.49302 12.001 7.80902C12.001 8.12402 11.724 8.38002 11.383 8.38002H5.041L7.357 10.654C7.567 10.849 7.607 11.274 7.363 11.487C7.12 11.701 6.676 11.633 6.463 11.44L3.167 8.20002C3.055 8.09002 3 7.96002 3 7.80802C3.006 7.67102 3.066 7.51402 3.167 7.41502L3.168 7.41602Z"/>
  </g>
</svg>
