<svg width="24" height="24" viewBox="0 0 16 16" fill="none" xmlns="http://www.w3.org/2000/svg">
  <defs>
    <clipPath id="clip0_328_3571">
      <rect width="16" height="16"/>
    </clipPath>
  </defs>
  <g clip-path="url(#clip0_328_3571)" fill-rule="evenodd" clip-rule="evenodd" fill="currentColor">
    <path d="M7.41552 12.832L4.17752 9.538C3.99152 9.315 3.91552 8.887 4.12952 8.638C4.34152 8.392 4.75052 8.399 4.96352 8.644L7.23752 10.96V4.617C7.23752 4.277 7.49252 4 7.80852 4C8.12452 4 8.37952 4.276 8.37952 4.617V10.96L10.6535 8.644C10.8495 8.433 11.2735 8.394 11.4875 8.637C11.7005 8.881 11.6325 9.324 11.4395 9.538L8.20152 12.832C8.09152 12.945 7.96052 13 7.80852 13C7.67252 12.994 7.51452 12.933 7.41552 12.832Z"/>
  </g>
</svg>
