<svg width="24" height="24" viewBox="0 0 16 16" fill="none" xmlns="http://www.w3.org/2000/svg">
  <path fill-rule="evenodd" clip-rule="evenodd" fill="currentColor" d="M11.833 8.2033L8.539 11.4413C8.315 11.6273 7.887 11.7033 7.638 11.4893C7.392 11.2773 7.399 10.8683 7.644 10.6553L9.96 8.3813H3.618C3.277 8.3813 3 8.1263 3 7.8103C3 7.4943 3.277 7.2393 3.618 7.2393H9.96L7.644 4.9653C7.434 4.7693 7.394 4.3453 7.638 4.1313C7.881 3.9183 8.325 3.9863 8.538 4.1793L11.833 7.4173C11.945 7.5273 12 7.6583 12 7.8103C11.994 7.9463 11.934 8.1043 11.833 8.2033V8.2033Z" />
</svg>
