<svg width="26" height="25" viewBox="0 0 26 25" fill="none" xmlns="http://www.w3.org/2000/svg">
<rect width="24.004" height="24.004" transform="translate(0.998047 0.0129395)" fill="#FF274B"/>
<g clip-path="url(#clip0_994_30193)">
<path fill-rule="evenodd" clip-rule="evenodd" d="M12.9551 9.60613C11.618 9.60613 10.5368 10.6863 10.5368 12.0245C10.5368 13.3616 11.618 14.4428 12.9551 14.4428C14.2933 14.4428 15.3735 13.3616 15.3735 12.0245C15.3735 10.6863 14.2933 9.60613 12.9551 9.60613ZM12.9551 13.6548C12.0583 13.6548 11.3248 12.9223 11.3248 12.0245C11.3248 11.1267 12.0583 10.3931 12.9561 10.3931C13.8529 10.3931 14.5865 11.1267 14.5865 12.0245C14.5865 12.9213 13.8519 13.6548 12.9551 13.6548ZM18.7269 13.3253L18.1223 12.9404C17.81 12.7389 17.6276 12.4084 17.6276 12.0426V12.0245C17.6276 11.6577 17.811 11.309 18.1213 11.1267L18.7259 10.7417C18.9103 10.6309 18.9647 10.3931 18.8549 10.2107L17.4805 7.84678C17.3706 7.66339 17.151 7.59084 16.9676 7.70068L16.363 7.99289C16.2169 8.06645 16.0516 8.10373 15.8874 8.10373C15.6858 8.10373 15.5025 8.04831 15.3191 7.95662L15.3009 7.93848C14.9714 7.75509 14.7699 7.42559 14.7508 7.05881L14.7145 6.38167C14.6963 6.18015 14.5311 6.01489 14.3296 6.01489H11.5817C11.3802 6.01489 11.1968 6.18015 11.1968 6.38167L11.1605 7.05881C11.1424 7.42559 10.9409 7.75509 10.6104 7.93848L10.5922 7.95662C10.4088 8.06746 10.2254 8.10373 10.0239 8.10373C9.85967 8.10373 9.69441 8.06645 9.5483 7.99289L8.94372 7.68254C8.76033 7.59084 8.52253 7.64526 8.42982 7.82865L7.05742 10.1916C6.94657 10.375 7.00199 10.5946 7.18539 10.7236L7.78997 11.1085C8.10234 11.31 8.28472 11.6395 8.28472 12.0053V12.0245C8.28472 12.3902 8.10133 12.7389 7.79098 12.9213L7.18639 13.3062C7.00199 13.417 6.94758 13.6548 7.05742 13.8382L8.43184 16.2011C8.54167 16.3845 8.76134 16.4389 8.94473 16.3483L9.54931 16.0359C9.69542 15.9633 9.86067 15.9261 10.0249 15.9261C10.2264 15.9261 10.4098 15.9815 10.5932 16.0732L10.6114 16.0913C10.9419 16.2747 11.1434 16.6052 11.1615 16.971L11.1978 17.6481C11.216 17.8496 11.3812 18.0149 11.5827 18.0149H14.3124C14.514 18.0149 14.6974 17.8496 14.6974 17.6481L14.7336 16.971C14.7518 16.6042 14.9533 16.2747 15.2838 16.0913L15.3201 16.0732C15.5035 15.9623 15.6869 15.9261 15.8884 15.9261C16.0526 15.9261 16.2179 15.9633 16.364 16.0369L16.9686 16.3483C17.152 16.4389 17.3908 16.3845 17.4825 16.2011L18.8559 13.8564C18.9667 13.673 18.9113 13.4352 18.7279 13.3253H18.7269ZM17.0038 15.5049L16.7298 15.3587C16.4728 15.2298 16.1806 15.1572 15.8874 15.1572C15.5569 15.1572 15.2274 15.2479 14.9341 15.4132L14.916 15.4313C14.3477 15.7618 13.9991 16.3291 13.9819 16.9528L13.9638 17.2642H11.9666L11.9485 16.971C11.9112 16.3291 11.5636 15.7618 11.0134 15.4494L10.9953 15.4313C10.7031 15.2671 10.3726 15.1754 10.0431 15.1754C9.74983 15.1754 9.45661 15.2489 9.19966 15.3769L8.90744 15.5049L7.91693 13.7838L8.20915 13.6004C8.74118 13.2528 9.07068 12.6663 9.07068 12.0436V12.0255C9.07068 11.3836 8.75831 10.7972 8.20915 10.4677L7.91693 10.2843L8.90543 8.56221L9.18052 8.70933C9.43746 8.8373 9.73069 8.91085 10.0229 8.91085C10.3534 8.91085 10.6829 8.81916 10.9761 8.6539L10.9943 8.63577C11.5626 8.30627 11.9112 7.73897 11.9284 7.11423L11.9475 6.80388H13.9255L13.9436 7.11524C13.9809 7.7561 14.3286 8.32441 14.8787 8.63577L14.8969 8.6539C15.1891 8.81916 15.5196 8.91085 15.8491 8.91085C16.1423 8.91085 16.4355 8.8373 16.6925 8.70933L16.9666 8.56221L17.9561 10.2853L17.6638 10.4677C17.1318 10.8163 16.8023 11.4017 16.8023 12.0255V12.0436C16.8023 12.6845 17.1137 13.2709 17.6628 13.6004L17.9561 13.7838L17.0038 15.5069V15.5049Z" fill="#B60017"/>
</g>
<defs>
<clipPath id="clip0_994_30193">
<rect width="16" height="16" fill="white" transform="translate(5 4.01489)"/>
</clipPath>
</defs>
</svg>
