<svg width="25" height="25" viewBox="0 0 25 25" fill="none" xmlns="http://www.w3.org/2000/svg">
<rect width="24.004" height="24.004" transform="translate(0.992188 0.0129395)" fill="#4D4D4D"/>
<g clip-path="url(#clip0_558_11550)">
<path fill-rule="evenodd" clip-rule="evenodd" d="M12.9493 9.60613C11.6121 9.60613 10.5309 10.6863 10.5309 12.0245C10.5309 13.3616 11.6121 14.4428 12.9493 14.4428C14.2874 14.4428 15.3676 13.3616 15.3676 12.0245C15.3676 10.6863 14.2874 9.60613 12.9493 9.60613ZM12.9493 13.6548C12.0525 13.6548 11.3189 12.9223 11.3189 12.0245C11.3189 11.1267 12.0525 10.3931 12.9503 10.3931C13.8471 10.3931 14.5807 11.1267 14.5807 12.0245C14.5807 12.9213 13.8461 13.6548 12.9493 13.6548ZM18.721 13.3253L18.1165 12.9404C17.8041 12.7389 17.6217 12.4084 17.6217 12.0426V12.0245C17.6217 11.6577 17.8051 11.309 18.1155 11.1267L18.72 10.7417C18.9044 10.6309 18.9589 10.3931 18.849 10.2107L17.4746 7.84678C17.3648 7.66339 17.1451 7.59084 16.9617 7.70068L16.3571 7.99289C16.211 8.06645 16.0458 8.10373 15.8815 8.10373C15.68 8.10373 15.4966 8.04831 15.3132 7.95662L15.2951 7.93848C14.9656 7.75509 14.764 7.42559 14.7449 7.05881L14.7086 6.38167C14.6905 6.18015 14.5252 6.01489 14.3237 6.01489H11.5759C11.3743 6.01489 11.1909 6.18015 11.1909 6.38167L11.1547 7.05881C11.1365 7.42559 10.935 7.75509 10.6045 7.93848L10.5864 7.95662C10.403 8.06746 10.2196 8.10373 10.0181 8.10373C9.85381 8.10373 9.68855 8.06645 9.54245 7.99289L8.93786 7.68254C8.75447 7.59084 8.51667 7.64526 8.42396 7.82865L7.05156 10.1916C6.94072 10.375 6.99614 10.5946 7.17953 10.7236L7.78411 11.1085C8.09648 11.31 8.27886 11.6395 8.27886 12.0053V12.0245C8.27886 12.3902 8.09547 12.7389 7.78512 12.9213L7.18053 13.3062C6.99614 13.417 6.94172 13.6548 7.05156 13.8382L8.42598 16.2011C8.53581 16.3845 8.75548 16.4389 8.93887 16.3483L9.54345 16.0359C9.68956 15.9633 9.85481 15.9261 10.0191 15.9261C10.2206 15.9261 10.404 15.9815 10.5874 16.0732L10.6055 16.0913C10.936 16.2747 11.1375 16.6052 11.1557 16.971L11.192 17.6481C11.2101 17.8496 11.3753 18.0149 11.5769 18.0149H14.3066C14.5081 18.0149 14.6915 17.8496 14.6915 17.6481L14.7278 16.971C14.7459 16.6042 14.9474 16.2747 15.2779 16.0913L15.3142 16.0732C15.4976 15.9623 15.681 15.9261 15.8825 15.9261C16.0468 15.9261 16.212 15.9633 16.3581 16.0369L16.9627 16.3483C17.1461 16.4389 17.3849 16.3845 17.4766 16.2011L18.85 13.8564C18.9609 13.673 18.9054 13.4352 18.7221 13.3253H18.721ZM16.998 15.5049L16.7239 15.3587C16.467 15.2298 16.1747 15.1572 15.8815 15.1572C15.551 15.1572 15.2215 15.2479 14.9283 15.4132L14.9102 15.4313C14.3418 15.7618 13.9932 16.3291 13.9761 16.9528L13.9579 17.2642H11.9608L11.9426 16.971C11.9054 16.3291 11.5577 15.7618 11.0076 15.4494L10.9894 15.4313C10.6972 15.2671 10.3667 15.1754 10.0372 15.1754C9.74397 15.1754 9.45075 15.2489 9.1938 15.3769L8.90159 15.5049L7.91107 13.7838L8.20329 13.6004C8.73532 13.2528 9.06482 12.6663 9.06482 12.0436V12.0255C9.06482 11.3836 8.75245 10.7972 8.20329 10.4677L7.91107 10.2843L8.89957 8.56221L9.17466 8.70933C9.4316 8.8373 9.72483 8.91085 10.017 8.91085C10.3476 8.91085 10.677 8.81916 10.9703 8.6539L10.9884 8.63577C11.5567 8.30627 11.9054 7.73897 11.9225 7.11423L11.9416 6.80388H13.9196L13.9378 7.11524C13.9751 7.7561 14.3227 8.32441 14.8729 8.63577L14.891 8.6539C15.1832 8.81916 15.5137 8.91085 15.8432 8.91085C16.1364 8.91085 16.4297 8.8373 16.6866 8.70933L16.9607 8.56221L17.9502 10.2853L17.658 10.4677C17.126 10.8163 16.7965 11.4017 16.7965 12.0255V12.0436C16.7965 12.6845 17.1078 13.2709 17.657 13.6004L17.9502 13.7838L16.998 15.5069V15.5049Z" fill="#6B6B6B"/>
</g>
<defs>
<clipPath id="clip0_558_11550">
<rect width="16" height="16" fill="white" transform="translate(4.99414 4.01489)"/>
</clipPath>
</defs>
</svg>
