<svg width="25" height="25" viewBox="0 0 25 25" fill="none" xmlns="http://www.w3.org/2000/svg">
<rect width="24" height="24.004" transform="translate(0.00634766 0.0129395)" fill="#01C38D"/>
<g clip-path="url(#clip0_558_11577)">
<path fill-rule="evenodd" clip-rule="evenodd" d="M11.9615 9.60613C10.6243 9.60613 9.54315 10.6863 9.54315 12.0245C9.54315 13.3616 10.6243 14.4428 11.9615 14.4428C13.2996 14.4428 14.3798 13.3616 14.3798 12.0245C14.3798 10.6863 13.2996 9.60613 11.9615 9.60613ZM11.9615 13.6548C11.0647 13.6548 10.3311 12.9223 10.3311 12.0245C10.3311 11.1267 11.0647 10.3931 11.9625 10.3931C12.8593 10.3931 13.5929 11.1267 13.5929 12.0245C13.5929 12.9213 12.8583 13.6548 11.9615 13.6548ZM17.7333 13.3253L17.1287 12.9404C16.8163 12.7389 16.6339 12.4084 16.6339 12.0426V12.0245C16.6339 11.6577 16.8173 11.309 17.1277 11.1267L17.7322 10.7417C17.9166 10.6309 17.9711 10.3931 17.8612 10.2107L16.4868 7.84678C16.377 7.66339 16.1573 7.59084 15.9739 7.70068L15.3693 7.99289C15.2232 8.06645 15.058 8.10373 14.8937 8.10373C14.6922 8.10373 14.5088 8.04831 14.3254 7.95662L14.3073 7.93848C13.9778 7.75509 13.7762 7.42559 13.7571 7.05881L13.7208 6.38167C13.7027 6.18015 13.5374 6.01489 13.3359 6.01489H10.5881C10.3865 6.01489 10.2032 6.18015 10.2032 6.38167L10.1669 7.05881C10.1487 7.42559 9.94721 7.75509 9.61671 7.93848L9.59857 7.95662C9.41518 8.06746 9.23179 8.10373 9.03026 8.10373C8.86601 8.10373 8.70076 8.06645 8.55465 7.99289L7.95007 7.68254C7.76668 7.59084 7.52887 7.64526 7.43617 7.82865L6.06376 10.1916C5.95292 10.375 6.00834 10.5946 6.19173 10.7236L6.79632 11.1085C7.10869 11.31 7.29107 11.6395 7.29107 12.0053V12.0245C7.29107 12.3902 7.10768 12.7389 6.79733 12.9213L6.19274 13.3062C6.00834 13.417 5.95393 13.6548 6.06376 13.8382L7.43819 16.2011C7.54802 16.3845 7.76768 16.4389 7.95108 16.3483L8.55566 16.0359C8.70177 15.9633 8.86702 15.9261 9.03127 15.9261C9.2328 15.9261 9.41619 15.9815 9.59958 16.0732L9.61771 16.0913C9.94822 16.2747 10.1497 16.6052 10.1679 16.971L10.2042 17.6481C10.2223 17.8496 10.3876 18.0149 10.5891 18.0149H13.3188C13.5203 18.0149 13.7037 17.8496 13.7037 17.6481L13.74 16.971C13.7581 16.6042 13.9596 16.2747 14.2901 16.0913L14.3264 16.0732C14.5098 15.9623 14.6932 15.9261 14.8947 15.9261C15.059 15.9261 15.2242 15.9633 15.3703 16.0369L15.9749 16.3483C16.1583 16.4389 16.3971 16.3845 16.4888 16.2011L17.8622 13.8564C17.9731 13.673 17.9177 13.4352 17.7343 13.3253H17.7333ZM16.0102 15.5049L15.7361 15.3587C15.4792 15.2298 15.1869 15.1572 14.8937 15.1572C14.5632 15.1572 14.2337 15.2479 13.9405 15.4132L13.9224 15.4313C13.354 15.7618 13.0054 16.3291 12.9883 16.9528L12.9701 17.2642H10.973L10.9549 16.971C10.9176 16.3291 10.5699 15.7618 10.0198 15.4494L10.0016 15.4313C9.70941 15.2671 9.3789 15.1754 9.0494 15.1754C8.75618 15.1754 8.46296 15.2489 8.20601 15.3769L7.91379 15.5049L6.92328 13.7838L7.2155 13.6004C7.74753 13.2528 8.07703 12.6663 8.07703 12.0436V12.0255C8.07703 11.3836 7.76466 10.7972 7.2155 10.4677L6.92328 10.2843L7.91178 8.56221L8.18686 8.70933C8.44381 8.8373 8.73704 8.91085 9.02925 8.91085C9.35976 8.91085 9.68926 8.81916 9.98248 8.6539L10.0006 8.63577C10.5689 8.30627 10.9176 7.73897 10.9347 7.11423L10.9538 6.80388H12.9318L12.95 7.11524C12.9873 7.7561 13.3349 8.32441 13.8851 8.63577L13.9032 8.6539C14.1954 8.81916 14.5259 8.91085 14.8554 8.91085C15.1487 8.91085 15.4419 8.8373 15.6988 8.70933L15.9729 8.56221L16.9624 10.2853L16.6702 10.4677C16.1382 10.8163 15.8087 11.4017 15.8087 12.0255V12.0436C15.8087 12.6845 16.12 13.2709 16.6692 13.6004L16.9624 13.7838L16.0102 15.5069V15.5049Z" fill="#5F618D"/>
</g>
<defs>
<clipPath id="clip0_558_11577">
<rect width="16" height="16" fill="white" transform="translate(4.00635 4.01489)"/>
</clipPath>
</defs>
</svg>
