<svg width="25" height="25" viewBox="0 0 25 25" fill="none" xmlns="http://www.w3.org/2000/svg">
<rect width="24" height="24.004" transform="translate(0.00439453 0.0129395)" fill="#FF274B"/>
<g clip-path="url(#clip0_558_11568)">
<path fill-rule="evenodd" clip-rule="evenodd" d="M11.9595 9.60613C10.6224 9.60613 9.5412 10.6863 9.5412 12.0245C9.5412 13.3616 10.6224 14.4428 11.9595 14.4428C13.2977 14.4428 14.3779 13.3616 14.3779 12.0245C14.3779 10.6863 13.2977 9.60613 11.9595 9.60613ZM11.9595 13.6548C11.0627 13.6548 10.3292 12.9223 10.3292 12.0245C10.3292 11.1267 11.0627 10.3931 11.9605 10.3931C12.8573 10.3931 13.5909 11.1267 13.5909 12.0245C13.5909 12.9213 12.8563 13.6548 11.9595 13.6548ZM17.7313 13.3253L17.1267 12.9404C16.8144 12.7389 16.632 12.4084 16.632 12.0426V12.0245C16.632 11.6577 16.8154 11.309 17.1257 11.1267L17.7303 10.7417C17.9147 10.6309 17.9691 10.3931 17.8593 10.2107L16.4849 7.84678C16.375 7.66339 16.1554 7.59084 15.972 7.70068L15.3674 7.99289C15.2213 8.06645 15.056 8.10373 14.8918 8.10373C14.6902 8.10373 14.5069 8.04831 14.3235 7.95662L14.3053 7.93848C13.9758 7.75509 13.7743 7.42559 13.7552 7.05881L13.7189 6.38167C13.7007 6.18015 13.5355 6.01489 13.334 6.01489H10.5861C10.3846 6.01489 10.2012 6.18015 10.2012 6.38167L10.1649 7.05881C10.1468 7.42559 9.94526 7.75509 9.61475 7.93848L9.59662 7.95662C9.41322 8.06746 9.22983 8.10373 9.02831 8.10373C8.86406 8.10373 8.69881 8.06645 8.5527 7.99289L7.94811 7.68254C7.76472 7.59084 7.52692 7.64526 7.43422 7.82865L6.06181 10.1916C5.95097 10.375 6.00639 10.5946 6.18978 10.7236L6.79436 11.1085C7.10673 11.31 7.28912 11.6395 7.28912 12.0053V12.0245C7.28912 12.3902 7.10573 12.7389 6.79537 12.9213L6.19079 13.3062C6.00639 13.417 5.95198 13.6548 6.06181 13.8382L7.43623 16.2011C7.54607 16.3845 7.76573 16.4389 7.94912 16.3483L8.55371 16.0359C8.69981 15.9633 8.86507 15.9261 9.02931 15.9261C9.23084 15.9261 9.41423 15.9815 9.59762 16.0732L9.61576 16.0913C9.94627 16.2747 10.1478 16.6052 10.1659 16.971L10.2022 17.6481C10.2203 17.8496 10.3856 18.0149 10.5871 18.0149H13.3168C13.5184 18.0149 13.7017 17.8496 13.7017 17.6481L13.738 16.971C13.7562 16.6042 13.9577 16.2747 14.2882 16.0913L14.3245 16.0732C14.5079 15.9623 14.6913 15.9261 14.8928 15.9261C15.057 15.9261 15.2223 15.9633 15.3684 16.0369L15.973 16.3483C16.1564 16.4389 16.3952 16.3845 16.4869 16.2011L17.8603 13.8564C17.9711 13.673 17.9157 13.4352 17.7323 13.3253H17.7313ZM16.0082 15.5049L15.7342 15.3587C15.4772 15.2298 15.185 15.1572 14.8918 15.1572C14.5613 15.1572 14.2318 15.2479 13.9385 15.4132L13.9204 15.4313C13.3521 15.7618 13.0035 16.3291 12.9863 16.9528L12.9682 17.2642H10.971L10.9529 16.971C10.9156 16.3291 10.568 15.7618 10.0178 15.4494L9.99967 15.4313C9.70746 15.2671 9.37695 15.1754 9.04745 15.1754C8.75423 15.1754 8.461 15.2489 8.20406 15.3769L7.91184 15.5049L6.92133 13.7838L7.21354 13.6004C7.74558 13.2528 8.07508 12.6663 8.07508 12.0436V12.0255C8.07508 11.3836 7.76271 10.7972 7.21354 10.4677L6.92133 10.2843L7.90982 8.56221L8.18491 8.70933C8.44186 8.8373 8.73508 8.91085 9.0273 8.91085C9.3578 8.91085 9.6873 8.81916 9.98053 8.6539L9.99866 8.63577C10.567 8.30627 10.9156 7.73897 10.9327 7.11423L10.9519 6.80388H12.9299L12.948 7.11524C12.9853 7.7561 13.3329 8.32441 13.8831 8.63577L13.9013 8.6539C14.1935 8.81916 14.524 8.91085 14.8535 8.91085C15.1467 8.91085 15.4399 8.8373 15.6969 8.70933L15.971 8.56221L16.9605 10.2853L16.6682 10.4677C16.1362 10.8163 15.8067 11.4017 15.8067 12.0255V12.0436C15.8067 12.6845 16.1181 13.2709 16.6672 13.6004L16.9605 13.7838L16.0082 15.5069V15.5049Z" fill="#5F618D"/>
</g>
<defs>
<clipPath id="clip0_558_11568">
<rect width="16" height="16" fill="white" transform="translate(4.00439 4.01489)"/>
</clipPath>
</defs>
</svg>
