<svg width="24" height="24" viewBox="0 0 16 16" fill="none" xmlns="http://www.w3.org/2000/svg">
<defs>
  <clipPath id="clip0_328_3595">
    <rect width="16" height="16" fill="white"/>
  </clipPath>
</defs>
<g clip-path="url(#clip0_328_3595)" fill-rule="evenodd" clip-rule="evenodd" fill="currentColor">
  <path d="M8 11C8.828 11 9.5 11.672 9.5 12.5C9.5 13.328 8.828 14 8 14C7.172 14 6.5 13.328 6.5 12.5C6.5 11.672 7.172 11 8 11ZM8 6.5C8.828 6.5 9.5 7.172 9.5 8C9.5 8.828 8.828 9.5 8 9.5C7.172 9.5 6.5 8.828 6.5 8C6.5 7.172 7.172 6.5 8 6.5ZM8 2C8.828 2 9.5 2.672 9.5 3.5C9.5 4.328 8.828 5 8 5C7.172 5 6.5 4.328 6.5 3.5C6.5 2.672 7.172 2 8 2Z"/>
</g>
</svg>
