<svg width="24" height="24" viewBox="0 0 16 16" fill="none" xmlns="http://www.w3.org/2000/svg">
  <g clip-path="url(#clip0_328_3654)" fill-rule="evenodd" clip-rule="evenodd" fill="currentColor">
    <path d="M13.6756 3.49646L12.4959 2.31498C12.075 1.89501 11.3431 1.89501 10.924 2.31498L3.26103 9.98535L3.19457 10.0509C2.94535 10.3001 2.76813 10.6139 2.68229 10.9564L2.00848 13.6544C1.98448 13.7485 2.01217 13.8482 2.08232 13.9184C2.13401 13.971 2.20508 13.9996 2.278 13.9996C2.30015 13.9996 2.32323 13.9968 2.34538 13.9913L5.04062 13.3175C5.38215 13.2316 5.69597 13.0544 5.94519 12.8043L6.01073 12.7387L6.01165 12.7378L12.6916 6.0514L13.6746 5.06838C14.1085 4.63455 14.1085 3.92936 13.6746 3.49554L13.6756 3.49646ZM5.81597 11.0838H4.91509V10.1829C4.91509 10.0287 4.79048 9.90412 4.63726 9.90412H4.1296L10.1385 3.88967L12.1036 5.85572L6.0938 11.8711V11.3625C6.0938 11.2093 5.96919 11.0847 5.81597 11.0847V11.0838ZM4.90679 12.7775L3.80377 13.0544C3.72069 12.8652 3.60532 12.6898 3.45763 12.5421C3.30995 12.3945 3.13549 12.2791 2.9472 12.196L3.22226 11.0921C3.28226 10.8539 3.40409 10.637 3.57486 10.4607H4.35943V11.3625C4.35943 11.5157 4.48312 11.6403 4.63634 11.6403H5.53814V12.4249C5.36276 12.5957 5.14493 12.7184 4.90679 12.7775V12.7775ZM13.2823 4.67609L12.4968 5.46251L10.5308 3.49646L11.3172 2.70912C11.4224 2.60481 11.5618 2.54666 11.7104 2.54666C11.8581 2.54666 11.9984 2.60481 12.1036 2.70912L13.2823 3.88967C13.4993 4.10658 13.4993 4.45918 13.2823 4.67609V4.67609Z"/>
  </g>
  <defs>
    <clipPath id="clip0_328_3654">
      <rect width="16" height="16"/>
    </clipPath>
  </defs>
</svg>
