<svg width="24" height="24" viewBox="0 0 16 16" fill="none" xmlns="http://www.w3.org/2000/svg">
  <defs>
    <clipPath id="clip0_328_3603">
      <rect width="16" height="16"/>
    </clipPath>
  </defs>
  <g clip-path="url(#clip0_328_3603)" fill-rule="evenodd" clip-rule="evenodd" fill="currentColor">
    <path d="M10 10.667C10.367 10.667 10.667 10.967 10.667 11.333C10.667 11.7 10.367 12 10 12H6C5.633 12 5.333 11.7 5.333 11.333C5.333 10.967 5.633 10.667 6 10.667H10ZM11.333 7.333C11.7 7.333 12 7.633 12 8C12 8.367 11.7 8.667 11.333 8.667H4.667C4.3 8.667 4 8.367 4 8C4 7.633 4.3 7.333 4.667 7.333H11.333ZM13.333 4C13.7 4 14 4.3 14 4.667C14 5.033 13.7 5.333 13.333 5.333H2.667C2.3 5.333 2 5.033 2 4.667C2 4.3 2.3 4 2.667 4H13.333Z"/>
  </g>
</svg>
