<svg width="24" height="24" viewBox="0 0 16 16" fill="none" xmlns="http://www.w3.org/2000/svg">
  <defs>
    <clipPath id="clip0_328_3650">
      <rect width="16" height="16"/>
    </clipPath>
  </defs>
  <g clip-path="url(#clip0_328_3650)" fill-rule="evenodd" clip-rule="evenodd" fill="currentColor">
    <path d="M8 2C11.3135 2 14 4.6865 14 8C14 11.3135 11.3135 14 8 14C4.6865 14 2 11.3135 2 8C2 4.6865 4.6865 2 8 2ZM8 2.8175C5.138 2.8175 2.8175 5.13875 2.8175 8C2.8175 10.862 5.138 13.1825 8 13.1825C10.862 13.1825 13.1825 10.862 13.1825 8C13.1825 5.138 10.862 2.8175 8 2.8175ZM7.685 6.6365C7.967 6.6365 8.1845 6.719 8.3375 6.88475C8.48975 7.0505 8.56625 7.26575 8.56625 7.5305C8.56625 7.58525 8.561 7.682 8.5505 7.82C8.54 7.958 8.5205 8.08475 8.49125 8.20025L8.1995 9.4565C8.17625 9.557 8.1545 9.6725 8.13575 9.8015C8.11625 9.93125 8.10725 10.0295 8.10725 10.0955C8.10725 10.2627 8.13725 10.376 8.1995 10.4367C8.261 10.4967 8.3675 10.5268 8.51825 10.5268C8.5895 10.5268 8.66975 10.5118 8.75975 10.4818C8.84975 10.4517 8.87675 10.7907 8.87675 10.7907C8.642 10.9032 8.45525 10.9888 8.31575 11.048C8.17625 11.1073 8.0135 11.1365 7.829 11.1365C7.5455 11.1365 7.32425 11.0518 7.1675 10.8837C7.01 10.7157 6.93125 10.5013 6.93125 10.2425C6.93125 10.142 6.9365 10.0393 6.9485 9.9335C6.9605 9.8285 6.97925 9.71 7.0055 9.57725L7.298 8.3165C7.32425 8.19575 7.34675 8.081 7.36475 7.973C7.38275 7.86575 7.391 7.76675 7.391 7.6775C7.391 7.51625 7.364 7.40375 7.3085 7.34C7.2545 7.277 7.151 7.2455 6.99575 7.2455C6.92075 7.2455 6.842 7.2605 6.76325 7.289C6.683 7.3175 6.63575 6.9815 6.63575 6.9815C6.8285 6.887 7.0115 6.80525 7.187 6.73775C7.3625 6.67025 7.52825 6.6365 7.685 6.6365ZM8.15825 4.59125C8.37725 4.59125 8.5655 4.6715 8.72075 4.83125C8.87675 4.99175 8.95475 5.18525 8.95475 5.411C8.95475 5.63675 8.87675 5.8295 8.72075 5.9885C8.5655 6.1475 8.37725 6.227 8.15825 6.227C7.9385 6.227 7.75025 6.1475 7.59275 5.9885C7.43525 5.8295 7.3565 5.63675 7.3565 5.411C7.3565 5.186 7.43525 4.99175 7.59275 4.83125C7.75025 4.67075 7.93775 4.59125 8.15825 4.59125Z"/>
  </g>
</svg>
