<svg width="24" height="24" viewBox="0 0 16 16" fill="none" xmlns="http://www.w3.org/2000/svg">
  <defs>
    <clipPath id="clip0_328_3662">
      <rect width="16" height="16"/>
    </clipPath>
  </defs>
  <g clip-path="url(#clip0_328_3662)" fill-rule="evenodd" clip-rule="evenodd" fill="currentColor">
    <path d="M8.18452 2C6.63226 2 5.36911 3.31736 5.36911 4.93614V6.92615H4.85661C4.38437 6.92615 4 7.32612 4 7.81808V13.1072C4 13.6 4.38437 14 4.85661 14H11.5108C11.983 14 12.3666 13.6 12.3666 13.1081V7.8189C12.3666 7.32612 11.983 6.92615 11.5108 6.92615H10.9999V4.93614C10.9999 3.31736 9.73677 2 8.18452 2ZM5.84792 4.93614C5.84792 3.5925 6.8959 2.50017 8.18452 2.50017C9.47232 2.50017 10.5203 3.5925 10.5203 4.93614V6.92615H5.84792V4.93614ZM11.8886 7.8189V13.1081C11.8886 13.3241 11.7194 13.5007 11.5116 13.5007H4.85744C4.64965 13.5007 4.48046 13.3241 4.48046 13.1081V7.8189C4.48046 7.60208 4.64965 7.4255 4.85744 7.4255H11.5116C11.7194 7.4255 11.8886 7.60208 11.8886 7.81808V7.8189Z"/>
    <path d="M8.18287 9.00238C7.63753 9.00238 7.19403 9.46559 7.19403 10.0339C7.19403 10.516 7.51434 10.9185 7.94306 11.031V11.6732C7.94306 11.812 8.04982 11.9237 8.18287 11.9237C8.31593 11.9237 8.42269 11.812 8.42269 11.6732V11.031C8.85388 10.9193 9.175 10.516 9.175 10.0339C9.175 9.46559 8.72986 9.00238 8.18287 9.00238ZM8.18287 10.5653C7.90199 10.5653 7.67367 10.3271 7.67367 10.0339C7.67367 9.74073 7.90199 9.50255 8.18287 9.50255C8.4654 9.50255 8.69537 9.74073 8.69537 10.0339C8.69537 10.3271 8.4654 10.5653 8.18287 10.5653Z"/>
  </g>
</svg>
