<svg width="24" height="24" viewBox="0 0 16 16" fill="none" xmlns="http://www.w3.org/2000/svg">
  <g clip-path="url(#clip0_328_3627)" fill="currentColor" fill-rule="evenodd" clip-rule="evenodd">
    <path d="M3.3269 3.55042H7.75984C8.00437 3.55042 8.20244 3.35235 8.20244 3.10783C8.20244 2.86243 8.00437 2.66524 7.75984 2.66524H3.3269C2.59509 2.66524 2 3.2612 2 3.99214V12.6731C2 13.4049 2.59597 14 3.3269 14H12.0079C12.7397 14 13.3348 13.404 13.3348 12.6731V8.24016C13.3348 7.99563 13.1367 7.79756 12.8922 7.79756C12.6476 7.79756 12.4496 7.99563 12.4496 8.24016V12.6731C12.4496 12.9167 12.2515 13.1157 12.0079 13.1157H3.3269C3.08326 13.1157 2.88431 12.9167 2.88431 12.6731V3.99214C2.88431 3.74849 3.08326 3.55042 3.3269 3.55042Z"/>
    <path d="M11.7686 2C10.5381 2 9.53723 3.00087 9.53723 4.23137C9.53723 5.46187 10.5381 6.46274 11.7686 6.46274C12.9991 6.46274 14 5.46187 14 4.23137C14 3.00087 12.9991 2 11.7686 2ZM11.7686 5.57843C11.0263 5.57843 10.4215 4.9737 10.4215 4.23137C10.4215 3.48904 11.0263 2.88431 11.7686 2.88431C12.5109 2.88431 13.1157 3.48904 13.1157 4.23137C13.1157 4.97458 12.5109 5.57843 11.7686 5.57843Z"/>
  </g>
  <defs>
    <clipPath id="clip0_328_3627">
      <rect width="16" height="16"/>
    </clipPath>
  </defs>
</svg>
