<svg width="24" height="24" viewBox="0 0 16 16" fill="none" xmlns="http://www.w3.org/2000/svg">
  <defs>
    <clipPath id="clip0_328_3579">
      <rect width="16" height="16"/>
    </clipPath>
  </defs>
  <g clip-path="url(#clip0_328_3579)" fill-rule="evenodd" clip-rule="evenodd" fill="currentColor">
    <path d="M13.8 12.864L10.858 9.918C12.338 7.992 12.189 5.21 10.414 3.448C9.444 2.478 8.194 2 6.928 2C5.662 2 4.413 2.477 3.443 3.449C1.519 5.374 1.519 8.502 3.443 10.428C4.413 11.399 5.663 11.877 6.928 11.877C7.98 11.877 9.033 11.547 9.904 10.872L12.864 13.802C12.995 13.934 13.159 14 13.34 14C13.505 14 13.686 13.934 13.817 13.802C14.064 13.556 14.064 13.128 13.801 12.864H13.8ZM6.945 10.544C5.975 10.544 5.087 10.164 4.396 9.49C3 8.09 3 5.802 4.396 4.387C5.07 3.712 5.975 3.333 6.945 3.333C7.915 3.333 8.803 3.712 9.493 4.387C10.183 5.062 10.545 5.967 10.545 6.938C10.545 7.909 10.167 8.798 9.493 9.49C8.819 10.181 7.898 10.543 6.945 10.543V10.544Z"/>
  </g>
</svg>
