<svg width="35" height="35" viewBox="0 0 35 35" fill="none" xmlns="http://www.w3.org/2000/svg">
<path fill-rule="evenodd" clip-rule="evenodd" d="M19.0496 3.33888C27.3075 3.33888 34.002 10.3151 34.002 18.9207C34.002 27.5262 27.3075 34.5024 19.0496 34.5024C10.7916 34.5024 4.09718 27.5262 4.09718 18.9207C4.09718 18.4365 4.11837 17.9575 4.15983 17.4846C4.3644 17.4977 4.56989 17.5041 4.77683 17.5041C10.4073 17.5041 14.9716 12.7476 14.9716 6.88019C14.9716 5.89629 14.8433 4.94362 14.6031 4.03939C16.0077 3.58415 17.5011 3.33888 19.0496 3.33888ZM20.9827 11.1298L18.3484 11.1418L13.6123 24.4428L15.6701 26.3232L22.4882 22.9931L23.6055 26.1804L25.9394 25.3014L20.9827 11.1298ZM18.4986 11.5631L18.6372 12.0087L14.3226 24.1342L13.9709 24.3031L18.4986 11.5631ZM18.7874 12.4301L18.9261 12.8635L15.0269 23.7957L14.6834 23.9608L18.7874 12.4301ZM19.0647 13.2971L19.2034 13.7185L15.7282 23.4588L15.3666 23.6326L19.0647 13.2971ZM19.3537 14.1519L19.4922 14.5854L16.4312 23.1211L16.0841 23.2879L19.3537 14.1519ZM19.669 14.9508L21.6341 20.5565L16.7902 22.9486L19.669 14.9508ZM4.63813 3.47456V13.2579H2.52786V3.47456H4.63813ZM2.11222 2.68714V12.4707H0.00195312V2.68714H2.11222ZM7.09479 2.23378V12.017H4.98465V2.23378H7.09479ZM9.55171 0.502441V10.2857H7.44131V0.502441H9.55171Z" fill="white"/>
</svg>
