<svg width="24" height="24" viewBox="0 0 16 16" fill="none" xmlns="http://www.w3.org/2000/svg">
  <defs>
    <clipPath id="clip0_328_3634">
      <rect width="16" height="16"/>
    </clipPath>
  </defs>
  <g clip-path="url(#clip0_328_3634)" fill-rule="evenodd" clip-rule="evenodd" fill="currentColor">
    <path d="M8 3C7.06625 3 6.12725 3.36 5.4155 4.0785C4.886 4.61325 4.56575 5.277 4.42925 5.9685C3.04775 6.24 2 7.458 2 8.92875C2 10.5982 3.34775 11.9595 5 11.9595H6.43475C6.57575 11.9617 6.707 11.8867 6.77825 11.7638C6.8495 11.64 6.8495 11.4878 6.77825 11.3647C6.707 11.2417 6.57575 11.1667 6.43475 11.169H5C3.77075 11.169 2.78225 10.1707 2.78225 8.92875C2.78225 7.7565 3.66575 6.801 4.796 6.6975C4.979 6.6795 5.1245 6.5355 5.147 6.35175C5.219 5.72475 5.4935 5.1165 5.96975 4.63425C6.53225 4.06725 7.26425 3.7905 8 3.7905C8.735 3.7905 9.464 4.0665 10.0258 4.63425C10.6753 5.2905 10.9505 6.18225 10.8492 7.035C10.835 7.1475 10.8695 7.26 10.9438 7.3455C11.018 7.43025 11.1238 7.47975 11.2362 7.47975H11.3915C12.41 7.47975 13.2178 8.29575 13.2178 9.32475C13.2178 10.353 12.41 11.169 11.3915 11.169H9.56525C9.42425 11.1667 9.293 11.2417 9.22175 11.3647C9.1505 11.4878 9.1505 11.64 9.22175 11.7638C9.293 11.8867 9.42425 11.9617 9.56525 11.9595H11.3915C12.83 11.9595 14 10.7775 14 9.324C14 7.953 12.9545 6.83625 11.6278 6.714C11.6337 5.76 11.2985 4.8045 10.58 4.0785C9.869 3.36 8.93375 3 8 3ZM8 7.47975C7.8695 7.47975 7.8005 7.5225 7.73525 7.5825L6.3005 8.90025C6.13475 9.0555 6.13775 9.3075 6.27575 9.4605C6.41375 9.61275 6.6785 9.624 6.83075 9.48525L7.6085 8.76825V12.3547C7.6085 12.573 7.784 12.75 8 12.75C8.216 12.75 8.3915 12.573 8.3915 12.3547V8.76825L9.17 9.48525C9.3215 9.624 9.578 9.60525 9.72425 9.4605C9.878 9.3075 9.85025 9.0405 9.6995 8.90025L8.26475 7.5825C8.1875 7.51125 8.12975 7.47975 8 7.47975Z"/>
  </g>
</svg>
