<svg width="272" height="90" viewBox="0 0 272 90" fill="none" xmlns="http://www.w3.org/2000/svg">
<path fill-rule="evenodd" clip-rule="evenodd" d="M8.31961 35.4199V22.623L16.9788 35.4199H27.3924L18.2239 22.6802C23.2609 21.4233 26.2605 18.0527 26.2605 12.0542C26.2605 5.59864 21.5065 1.14258 14.2056 1.14258H0V35.4199H8.31961ZM14.9979 15.9961H8.31961V8.28369H14.7715C16.6392 8.28369 18.1107 10.0547 18.1107 12.0542C18.1107 14.0537 16.8656 15.9961 14.9979 15.9961ZM54.2351 35.4199V28.2217H39.4635V22.0518H52.5372V14.7393H39.4635V8.56934H53.6125V1.14258H31.1439V35.4199H54.2351ZM66.193 35.4199L67.8343 31.8779H81.2475L82.9454 35.4199H91.8875L75.2483 0H73.7768L57.2508 35.4199H66.193ZM78.4177 25.8794H70.4377L74.3994 17.1958H74.5126L78.4177 25.8794ZM109.958 36.5625C116.24 36.5625 120.937 33.8774 124.333 30.2783L118.787 24.7939C116.41 27.1362 113.354 28.6216 109.958 28.6216C103.902 28.6216 99.9969 24.0513 99.9969 18.2812C99.9969 12.5112 103.902 7.94092 109.958 7.94092C113.354 7.94092 116.41 9.42627 118.787 11.7686L124.503 6.28418C120.881 2.45654 116.41 0 109.958 0C99.2046 0 91.5641 8.05518 91.5641 18.2812C91.5641 28.5073 99.2046 36.5625 109.958 36.5625ZM143.705 35.4199V8.56934H151.402V1.14258H127.745V8.56934H135.329V35.4199H143.705ZM164.379 35.4199V1.14258H156.059V35.4199H164.379ZM184.487 36.5625L199.484 1.14258H190.825L183.977 17.6528L177.129 1.14258H168.47L183.468 36.5625H184.487ZM226.667 35.4199V28.2217H211.895V22.0518H224.969V14.7393H211.895V8.56934H226.044V1.14258H203.576V35.4199H226.667Z" fill="currentcolor"/>
<path fill-rule="evenodd" clip-rule="evenodd" d="M8.97149 88.8574L10.6182 85.3154H24.0754L25.7788 88.8574H34.7503L18.0565 53.4375H16.5802L0 88.8574H8.97149ZM21.2363 79.3169H13.2301L17.2048 70.6333H17.3184L21.2363 79.3169ZM47.5424 88.8574V68.4624L60.8293 88.8574H69.5169V54.5801H61.2268V74.918L47.9967 54.5801H39.1955V88.8574H47.5424ZM82.9336 88.8574L84.5802 85.3154H98.0375L99.7409 88.8574H108.712L92.0186 53.4375H90.5423L73.9621 88.8574H82.9336ZM95.1984 79.3169H87.1922L91.1669 70.6333H91.2804L95.1984 79.3169ZM136.324 88.8574V81.6592H121.504V54.5801H113.158V88.8574H136.324ZM152.978 88.8574V72.29L165.072 54.5801H155.703L148.833 64.8633L142.019 54.5801H132.593L144.688 72.29V88.8574H152.978ZM184.337 88.8574V62.0068H192.06V54.5801H168.325V62.0068H175.934V88.8574H184.337ZM205.079 88.8574V54.5801H196.732V88.8574H205.079ZM230.136 90C236.438 90 241.151 87.3149 244.558 83.7158L238.994 78.2314C236.609 80.5737 233.543 82.0591 230.136 82.0591C224.06 82.0591 220.142 77.4888 220.142 71.7188C220.142 65.9487 224.06 61.3784 230.136 61.3784C233.543 61.3784 236.609 62.8638 238.994 65.2061L244.729 59.7217C241.095 55.894 236.609 53.4375 230.136 53.4375C219.347 53.4375 211.682 61.4927 211.682 71.7188C211.682 81.9448 219.347 90 230.136 90ZM260.473 90C266.89 90 272 84.9727 272 78.917C272 73.5469 269.161 70.1191 263.085 68.291C260.189 67.4341 257.066 66.9771 257.066 64.4063C257.066 62.1782 258.827 61.0928 260.644 61.0928C262.972 61.0928 264.164 62.6924 264.164 64.6348H272C271.546 58.2935 267.969 53.4375 260.417 53.4375C254 53.4375 248.833 58.4648 248.833 64.5205C248.833 70.4048 252.013 73.0898 257.748 75.1465C260.53 76.1177 263.88 76.8604 263.88 79.4312C263.88 81.2021 262.574 82.4019 260.473 82.4019C258.543 82.4019 256.953 80.8022 256.953 78.8027H248.833C248.833 84.9727 253.035 90 260.473 90Z" fill="currentcolor"/>
</svg>
