<svg xmlns="http://www.w3.org/2000/svg" viewBox="0 0 154 53" width="154" height="53" fill="#FFF">
  <path 
    fill-rule="evenodd" 
    clip-rule="evenodd" 
    d="M30.828 4.41893C44.1933 4.41893 55.028 15.2873 55.028 28.694C55.028 42.1008 44.1933 52.9692 30.828 52.9692C17.4627 52.9692 6.628 42.1008 6.628 28.694C6.628 27.9398 6.66229 27.1936 6.7294 26.4569C7.06049 26.4772 7.39308 26.4872 7.728 26.4872C16.8407 26.4872 24.228 19.077 24.228 9.936C24.228 8.40316 24.0203 6.91899 23.6315 5.51026C25.9048 4.80105 28.3219 4.41893 30.828 4.41893ZM33.9567 16.5565L29.6931 16.5752L22.028 37.2971L25.3585 40.2265L36.3933 35.0386L38.2016 40.004L41.979 38.6347L33.9567 16.5565ZM29.9362 17.2316L30.1606 17.9258L23.1775 36.8163L22.6083 37.0795L29.9362 17.2316ZM30.4037 18.5824L30.6281 19.2575L24.3174 36.289L23.7615 36.5462L30.4037 18.5824ZM30.8525 19.9329L31.0769 20.5895L25.4525 35.7642L24.8672 36.0348L30.8525 19.9329ZM31.3202 21.2648L31.5444 21.94L26.5902 35.238L26.0285 35.4978L31.3202 21.2648ZM31.8305 22.5094L35.011 31.2425L27.1712 34.9692L31.8305 22.5094ZM7.50351 4.63032V19.872H4.08811V4.63032H7.50351ZM3.4154 3.40357V18.6455H0V3.40357H3.4154ZM11.4795 2.69728V17.9387H8.06435V2.69728H11.4795ZM15.456 0V15.2414H12.0404V0H15.456Z"/>
  <path
    fill-rule="evenodd"
    clip-rule="evenodd"
    d="M60.1944 43.5629L60.7756 42.3035H65.5252L66.1264 43.5629H69.2928L63.4009 30.9692H62.8798L57.028 43.5629H60.1944ZM64.5232 40.1707H61.6974L63.1003 37.0832H63.1404L64.5232 40.1707ZM73.8077 43.5629V36.3113L78.4972 43.5629H81.5634V31.3754H78.6375V38.6067L73.968 31.3754H70.8617V43.5629H73.8077ZM86.2987 43.5629L86.8798 42.3035H91.6295L92.2307 43.5629H95.3971L89.5052 30.9692H88.9841L83.1323 43.5629H86.2987ZM90.6274 40.1707H87.8017L89.2045 37.0832H89.2446L90.6274 40.1707ZM105.143 43.5629V41.0035H99.9119V31.3754H96.966V43.5629H105.143ZM111.02 43.5629V37.6723L115.289 31.3754H111.982L109.557 35.0317L107.152 31.3754H103.826L108.094 37.6723V43.5629H111.02ZM122.088 43.5629V34.016H124.814V31.3754H116.437V34.016H119.122V43.5629H122.088ZM129.409 43.5629V31.3754H126.463V43.5629H129.409ZM138.252 43.9692C140.477 43.9692 142.14 43.0145 143.343 41.7348L141.379 39.7848C140.537 40.6176 139.455 41.1457 138.252 41.1457C136.108 41.1457 134.725 39.5207 134.725 37.4692C134.725 35.4176 136.108 33.7926 138.252 33.7926C139.455 33.7926 140.537 34.3207 141.379 35.1535L143.403 33.2035C142.12 31.8426 140.537 30.9692 138.252 30.9692C134.445 30.9692 131.739 33.8332 131.739 37.4692C131.739 41.1051 134.445 43.9692 138.252 43.9692ZM148.96 43.9692C151.224 43.9692 153.028 42.1817 153.028 40.0285C153.028 38.1192 152.026 36.9004 149.882 36.2504C148.86 35.9457 147.757 35.7832 147.757 34.8692C147.757 34.077 148.379 33.691 149.02 33.691C149.842 33.691 150.262 34.2598 150.262 34.9504H153.028C152.868 32.6957 151.605 30.9692 148.94 30.9692C146.675 30.9692 144.851 32.7567 144.851 34.9098C144.851 37.002 145.974 37.9567 147.998 38.6879C148.98 39.0332 150.162 39.2973 150.162 40.2113C150.162 40.841 149.701 41.2676 148.96 41.2676C148.278 41.2676 147.717 40.6988 147.717 39.9879H144.851C144.851 42.1817 146.334 43.9692 148.96 43.9692Z"/>
  <path
    fill-rule="evenodd"
    clip-rule="evenodd"
    d="M64.9643 24.5629V20.0129L68.0205 24.5629H71.6959L68.46 20.0332C70.2377 19.5863 71.2964 18.3879 71.2964 16.2551C71.2964 13.9598 69.6185 12.3754 67.0417 12.3754H62.028V24.5629H64.9643ZM67.3214 17.6567H64.9643V14.9145H67.2415C67.9007 14.9145 68.42 15.5442 68.42 16.2551C68.42 16.966 67.9806 17.6567 67.3214 17.6567ZM81.1698 24.5629V22.0035H75.9563V19.8098H80.5705V17.2098H75.9563V15.016H80.9501V12.3754H73.02V24.5629H81.1698ZM85.3902 24.5629L85.9695 23.3035H90.7036L91.3028 24.5629H94.4589L88.5862 11.9692H88.0669L82.2342 24.5629H85.3902ZM89.7048 21.1707H86.8884L88.2866 18.0832H88.3266L89.7048 21.1707ZM100.837 24.9692C103.054 24.9692 104.712 24.0145 105.91 22.7348L103.953 20.7848C103.114 21.6176 102.035 22.1457 100.837 22.1457C98.6993 22.1457 97.321 20.5207 97.321 18.4692C97.321 16.4176 98.6993 14.7926 100.837 14.7926C102.035 14.7926 103.114 15.3207 103.953 16.1535L105.97 14.2035C104.692 12.8426 103.114 11.9692 100.837 11.9692C97.0414 11.9692 94.3447 14.8332 94.3447 18.4692C94.3447 22.1051 97.0414 24.9692 100.837 24.9692ZM112.747 24.5629V15.016H115.464V12.3754H107.115V15.016H109.791V24.5629H112.747ZM120.044 24.5629V12.3754H117.108V24.5629H120.044ZM127.141 24.9692L132.434 12.3754H129.378L126.961 18.2457L124.544 12.3754H121.488L126.781 24.9692H127.141ZM142.028 24.5629V22.0035H136.815V19.8098H141.429V17.2098H136.815V15.016H141.808V12.3754H133.878V24.5629H142.028Z"/>
</svg>
