<svg width="24" height="24" viewBox="0 0 16 16" fill="none" xmlns="http://www.w3.org/2000/svg">
  <defs>
    <clipPath id="clip0_328_3623">
      <rect width="16" height="16"/>
    </clipPath>
  </defs>
  <g clip-path="url(#clip0_328_3623)" fill-rule="evenodd" clip-rule="evenodd" fill="currentColor">
    <path d="M2.55804 10.0652L2.90482 9.85715L4.2271 4.89873C4.68291 3.18932 6.23099 2 8.00004 2C9.76908 2 11.3172 3.18936 11.773 4.89873L13.0953 9.85715L13.442 10.0652C13.7882 10.2729 14 10.647 14 11.0507C14 11.6855 13.4854 12.2 12.8507 12.2H10.3243C10.058 13.2352 9.11834 14 7.99994 14C6.88164 14 5.94193 13.2352 5.67553 12.2H3.14928C2.51454 12.2 2 11.6855 2 11.0507C2 10.647 2.21182 10.2729 2.558 10.0652H2.55804ZM2.86672 10.5797L3.42191 10.2466L4.80683 5.05333C5.19266 3.6066 6.5028 2.60004 8.00017 2.60004C9.49741 2.60004 10.8076 3.60664 11.1935 5.05333L12.5784 10.2466L13.1336 10.5797C13.2991 10.679 13.4003 10.8578 13.4003 11.0507C13.4003 11.3541 13.1543 11.6 12.851 11.6H3.14958C2.84621 11.6 2.6003 11.3541 2.6003 11.0507C2.6003 10.8578 2.70155 10.679 2.86698 10.5797H2.86672ZM6.30245 12.2C6.54958 12.8991 7.21628 13.4 7.99998 13.4C8.78367 13.4 9.45054 12.8991 9.6975 12.2H6.30245Z"/>
  </g>
</svg>
