<svg width="24" height="24" viewBox="0 0 16 16" fill="none" xmlns="http://www.w3.org/2000/svg">
  <defs>
    <clipPath id="clip0_328_3567">
      <rect width="16" height="16"/>
    </clipPath>
  </defs>
  <g clip-path="url(#clip0_328_3567)" fill-rule="evenodd" clip-rule="evenodd" fill="currentColor">
    <path d="M8.2033 3.16701L11.4413 6.46101C11.6273 6.68401 11.7033 7.11201 11.4893 7.36101C11.2773 7.60701 10.8683 7.60101 10.6553 7.35501L8.3813 5.04001V11.383C8.3813 11.724 8.1263 12.001 7.8103 12.001C7.4943 12.001 7.2393 11.724 7.2393 11.383V5.03901L4.9653 7.35501C4.7693 7.56601 4.3453 7.60501 4.1313 7.36201C3.9183 7.11801 3.9863 6.67501 4.1793 6.46101L7.4173 3.16701C7.5273 3.05401 7.6583 2.99901 7.8103 3.00001C7.9463 3.00501 8.1043 3.06601 8.2033 3.16701Z"/>
  </g>
</svg>
