<svg width="16" height="16" viewBox="0 0 16 16" fill="none" xmlns="http://www.w3.org/2000/svg">
<g clip-path="url(#clip0_2864_44827)">
<path d="M6.13793 11.6196H4.27587C4.04831 11.6196 3.86206 11.4031 3.86206 11.1386V6.85771C3.86206 6.59319 4.04832 6.37671 4.27587 6.37671H6.13793C6.3655 6.37671 6.55174 6.59321 6.55174 6.85771V11.1625C6.55174 11.427 6.36548 11.6195 6.13793 11.6195V11.6196ZM4.68968 10.6575H5.72409V7.33878H4.68968V10.6575Z" fill="currentColor"/>
<path d="M9.86206 11.6196H7.99999C7.77243 11.6196 7.58618 11.4031 7.58618 11.1386V4.69331C7.58618 4.4288 7.77244 4.21231 7.99999 4.21231H9.86206C10.0896 4.21231 10.2759 4.42882 10.2759 4.69331V11.1625C10.2759 11.427 10.0896 11.6195 9.86206 11.6195V11.6196ZM8.4138 10.6575H9.44821V5.17427H8.4138V10.6575Z" fill="currentColor"/>
<path d="M13.5862 11.6196H11.7241C11.4965 11.6196 11.3103 11.4031 11.3103 11.1386V2.481C11.3103 2.21649 11.4966 2 11.7241 2H13.5862C13.8137 2 14 2.2165 14 2.481V11.1386C14 11.4271 13.8137 11.6196 13.5862 11.6196ZM12.1379 10.6575H13.1723V2.96196H12.1379V10.6575Z" fill="currentColor"/>
<path d="M14 14H2.41381C2.18625 14 2.5 14 2 14V2C2.41381 2 2.18626 2 2.41381 2C2.64136 2 2.41381 2 2.82762 2V13.0382H14C14 13.5192 14 13.2355 14 13.5C14 13.7645 13.9998 13.5937 14 14Z" fill="currentColor"/>
</g>
<defs>
<clipPath id="clip0_2864_44827">
<rect width="16" height="16" fill="currentColor"/>
</clipPath>
</defs>
</svg>
