<svg width="24" height="24" viewBox="0 0 16 16" fill="none" xmlns="http://www.w3.org/2000/svg">
  <defs>
    <clipPath id="clip0_328_3583">
      <rect width="16" height="16"/>
    </clipPath>
  </defs>
  <g clip-path="url(#clip0_328_3583)" fill-rule="evenodd" clip-rule="evenodd" fill="currentColor">
    <path d="M12.333 3H11.333V2H10.666V3H5.333V2H4.667V3H3.667C2.747 3 2 3.748 2 4.667V12.333C2 13.253 2.748 14 3.667 14H12.333C13.253 14 14 13.252 14 12.333V4.667C14 3.746 13.252 3 12.333 3ZM13.333 12.333C13.333 12.883 12.884 13.333 12.333 13.333H3.667C3.115 13.333 2.667 12.883 2.667 12.333V6.333H13.333V12.333ZM13.333 5.667H2.667V4.667C2.667 4.115 3.115 3.667 3.667 3.667H4.667V4.333H5.333V3.667H10.666V4.333H11.333V3.667H12.333C12.884 3.667 13.333 4.115 13.333 4.667V5.667Z"/>
  </g>
</svg>
