<svg width="16" height="16" viewBox="0 0 16 16" fill="none" xmlns="http://www.w3.org/2000/svg">
<g clip-path="url(#clip0_2735_55475)">
<path d="M14.2799 13.9466H2.27997V1.94666H3.07448V13.1521H14.28L14.2799 13.9466Z" fill="currentColor"/>
<path d="M5.7031 11.3988H4.22397C3.92999 11.3988 3.69165 11.1605 3.69165 10.8665V6.80921C3.69165 6.51522 3.93001 6.27689 4.22397 6.27689H5.70444C5.99842 6.27689 6.23675 6.51524 6.23675 6.80921V10.8665C6.23675 11.1605 5.99708 11.3988 5.7031 11.3988ZM4.48616 10.6043H5.44222V7.07125H4.48616V10.6043Z" fill="currentColor"/>
<path d="M4.56702 5.51942H5.36152V6.67414H4.56702V5.51942Z" fill="currentColor"/>
<path d="M4.56702 11.0015H5.36152V12.1562H4.56702V11.0015Z" fill="currentColor"/>
<path d="M9.34732 8.62995H7.86685C7.57287 8.62995 7.33453 8.39159 7.33453 8.09763V4.03888C7.33453 3.7449 7.57289 3.50657 7.86685 3.50657H9.34732C9.6413 3.50657 9.87964 3.74492 9.87964 4.03888V8.09617C9.87964 8.39016 9.63996 8.62983 9.34732 8.62983V8.62995ZM8.12907 7.83544H9.08513V4.30117H8.12907V7.83544Z" fill="currentColor"/>
<path d="M8.20972 2.74915H9.00422V3.90387H8.20972V2.74915Z" fill="currentColor"/>
<path d="M8.20972 8.2326H9.00422V9.38731H8.20972V8.2326Z" fill="currentColor"/>
<path d="M12.9901 9.53967H11.5096C11.2156 9.53967 10.9773 9.30131 10.9773 9.00735V4.95006C10.9773 4.65608 11.2157 4.41774 11.5096 4.41774H12.9901C13.2841 4.41774 13.5224 4.6561 13.5224 4.95006V9.00735C13.5224 9.30133 13.284 9.53967 12.9901 9.53967ZM11.7718 8.74516H12.7279V5.2121H11.7718V8.74516Z" fill="currentColor"/>
<path d="M11.8527 3.66028H12.6472V4.81499H11.8527V3.66028Z" fill="currentColor"/>
<path d="M11.8527 9.14232H12.6472V10.297H11.8527V9.14232Z" fill="currentColor"/>
</g>
<defs>
<clipPath id="clip0_2735_55475">
<rect width="16" height="16" fill="currentColor"/>
</clipPath>
</defs>
</svg>
