<svg width="24" height="24" viewBox="0 0 16 16" fill="none" xmlns="http://www.w3.org/2000/svg">
  <defs>
    <clipPath id="clip0_328_3646">
      <rect width="16" height="16"/>
    </clipPath>
  </defs>
  <g clip-path="url(#clip0_328_3646)" fill-rule="evenodd" clip-rule="evenodd" fill="currentColor">
    <path d="M7.95514 5.59123C6.618 5.59123 5.5368 6.67142 5.5368 8.00957C5.5368 9.34671 6.618 10.4279 7.95514 10.4279C9.29329 10.4279 10.3735 9.34671 10.3735 8.00957C10.3735 6.67142 9.29329 5.59123 7.95514 5.59123ZM7.95514 9.63994C7.05834 9.63994 6.32478 8.90738 6.32478 8.00957C6.32478 7.11176 7.05834 6.3782 7.95615 6.3782C8.85295 6.3782 9.58651 7.11176 9.58651 8.00957C9.58651 8.90637 8.85194 9.63994 7.95514 9.63994ZM13.7269 9.31044L13.1223 8.92552C12.81 8.72399 12.6276 8.39348 12.6276 8.02771V8.00957C12.6276 7.64279 12.811 7.29415 13.1213 7.11176L13.7259 6.72684C13.9103 6.616 13.9647 6.3782 13.8549 6.19582L12.4805 3.83189C12.3706 3.6485 12.151 3.57595 11.9676 3.68578L11.363 3.978C11.2169 4.05156 11.0516 4.08884 10.8874 4.08884C10.6858 4.08884 10.5025 4.03342 10.3191 3.94172L10.3009 3.92359C9.97143 3.7402 9.7699 3.4107 9.75076 3.04392L9.71448 2.36678C9.69634 2.16525 9.53109 2 9.32956 2H6.58172C6.3802 2 6.19681 2.16525 6.19681 2.36678L6.16053 3.04392C6.14239 3.4107 5.94086 3.7402 5.61036 3.92359L5.59222 3.94172C5.40883 4.05257 5.22544 4.08884 5.02391 4.08884C4.85967 4.08884 4.69441 4.05156 4.5483 3.978L3.94372 3.66765C3.76033 3.57595 3.52253 3.63036 3.42982 3.81375L2.05742 6.17667C1.94657 6.36006 2.00199 6.57973 2.18539 6.70871L2.78997 7.09363C3.10234 7.29515 3.28472 7.62465 3.28472 7.99043V8.00957C3.28472 8.37535 3.10133 8.72399 2.79098 8.90637L2.18639 9.29129C2.00199 9.40213 1.94758 9.63994 2.05742 9.82333L3.43184 12.1862C3.54167 12.3696 3.76134 12.424 3.94473 12.3334L4.54931 12.021C4.69542 11.9484 4.86067 11.9112 5.02492 11.9112C5.22645 11.9112 5.40984 11.9666 5.59323 12.0583L5.61137 12.0764C5.94187 12.2598 6.1434 12.5903 6.16154 12.9561L6.19781 13.6332C6.21595 13.8347 6.3812 14 6.58273 14H9.31243C9.51396 14 9.69735 13.8347 9.69735 13.6332L9.73363 12.9561C9.75176 12.5893 9.95329 12.2598 10.2838 12.0764L10.3201 12.0583C10.5035 11.9474 10.6869 11.9112 10.8884 11.9112C11.0526 11.9112 11.2179 11.9484 11.364 12.022L11.9686 12.3334C12.152 12.424 12.3908 12.3696 12.4825 12.1862L13.8559 9.84146C13.9667 9.65807 13.9113 9.42027 13.7279 9.31044H13.7269ZM12.0038 11.49L11.7298 11.3439C11.4728 11.2149 11.1806 11.1423 10.8874 11.1423C10.5569 11.1423 10.2274 11.233 9.93415 11.3983L9.91601 11.4164C9.3477 11.7469 8.99906 12.3142 8.98193 12.9379L8.96379 13.2493H6.96664L6.94851 12.9561C6.91122 12.3142 6.56359 11.7469 6.01342 11.4345L5.99528 11.4164C5.70306 11.2522 5.37256 11.1605 5.04306 11.1605C4.74983 11.1605 4.45661 11.234 4.19966 11.362L3.90744 11.49L2.91693 9.76891L3.20915 9.58552C3.74118 9.23789 4.07068 8.65144 4.07068 8.02872V8.01058C4.07068 7.36871 3.75831 6.78227 3.20915 6.45277L2.91693 6.26938L3.90543 4.54732L4.18052 4.69443C4.43746 4.8224 4.73069 4.89596 5.0229 4.89596C5.35341 4.89596 5.68291 4.80427 5.97613 4.63901L5.99427 4.62087C6.56258 4.29138 6.91122 3.72407 6.92835 3.09934L6.9475 2.78898H8.9255L8.94364 3.10034C8.98092 3.7412 9.32855 4.30951 9.87873 4.62087L9.89686 4.63901C10.1891 4.80427 10.5196 4.89596 10.8491 4.89596C11.1423 4.89596 11.4355 4.8224 11.6925 4.69443L11.9666 4.54732L12.9561 6.27038L12.6638 6.45277C12.1318 6.80141 11.8023 7.38685 11.8023 8.01058V8.02872C11.8023 8.66958 12.1137 9.25602 12.6628 9.58552L12.9561 9.76891L12.0038 11.492V11.49Z"/>
  </g>
</svg>
