<svg width="24" height="24" viewBox="0 0 16 16" fill="none" xmlns="http://www.w3.org/2000/svg">
  <defs>
    <clipPath id="clip0_328_3638">
      <rect width="16" height="16"/>
    </clipPath>
  </defs>
  <g clip-path="url(#clip0_328_3638)" fill-rule="evenodd" clip-rule="evenodd" fill="currentColor">
    <path d="M1.98401 13.016V10.096C1.98401 9.81899 2.20701 9.59599 2.48401 9.59599H2.49701C2.77401 9.59599 2.99701 9.81899 2.99701 10.096V12.016H12.003V10.096C12.003 9.81899 12.226 9.59599 12.503 9.59599H12.516C12.793 9.59599 13.016 9.81899 13.016 10.096V13.016H1.98401ZM11.185 6.65399C11.4 6.90399 11.323 7.33199 11.138 7.55499L7.89901 10.849C7.80001 10.95 7.64301 11.011 7.50601 11.016C7.35401 11.016 7.22401 10.962 7.11401 10.849L3.87501 7.55499C3.68201 7.34099 3.61401 6.89699 3.82801 6.65499C4.04101 6.41099 4.46601 6.44999 4.66101 6.66099L6.93501 8.97699V2.63399C6.93501 2.29299 7.19101 2.01599 7.50601 2.01599C7.82201 2.01599 8.07801 2.29299 8.07801 2.63399V8.97699L10.352 6.66099C10.564 6.41599 10.974 6.40799 11.185 6.65399V6.65399Z"/>
  </g>
</svg>
