<svg width="13" height="7" viewBox="0 0 13 7" fill="none" xmlns="http://www.w3.org/2000/svg">
<path fill-rule="evenodd" clip-rule="evenodd" d="M6.00571 0.0309448C9.32002 0.0309448 12.006 3.224 12.006 3.224C12.006 3.224 9.32002 6.41706 6.00571 6.41706C2.69249 6.41706 0.00598145 3.224 0.00598145 3.224C0.00598145 3.224 2.69249 0.0309448 6.00571 0.0309448ZM4.93143 0.463631L4.85647 0.480717C2.42075 1.05396 0.596308 3.22235 0.596308 3.22235C0.596308 3.22235 2.45934 5.43648 4.93309 5.98106C3.82905 5.55113 3.04691 4.47796 3.04691 3.2218C3.04691 1.96673 3.82795 0.894112 4.93143 0.463631ZM7.08108 0.463631L7.13179 0.484576C8.20772 0.927734 8.96561 1.98657 8.96561 3.2218C8.96561 4.47796 8.18291 5.55058 7.07943 5.98051C9.55318 5.43593 11.4151 3.22235 11.4151 3.22235C11.4151 3.22235 9.55373 1.00931 7.08108 0.463631ZM6.00626 0.551821C4.54064 0.551821 3.35337 1.73909 3.35337 3.20416C3.35337 4.66923 4.54064 5.85704 6.00571 5.85704C7.47077 5.85704 8.65914 4.66923 8.65914 3.20416C8.65914 1.73909 7.47188 0.551821 6.00626 0.551821ZM6.00571 1.33837C6.20524 1.33837 6.39705 1.36979 6.57784 1.42711C6.57013 1.42711 6.56241 1.42491 6.55469 1.42491C6.16169 1.42491 5.8431 1.7435 5.8431 2.1365C5.8431 2.5295 6.16169 2.84809 6.55469 2.84809C6.94769 2.84809 7.26628 2.5295 7.26628 2.13705C7.26628 1.97114 7.2073 1.82067 7.1125 1.6994C7.58432 2.04224 7.89188 2.59619 7.89188 3.224C7.89188 4.26575 7.04746 5.10963 6.00571 5.10963C4.96395 5.10963 4.12008 4.26575 4.12008 3.22455C4.12008 2.1828 4.9645 1.33837 6.00571 1.33837Z" fill="#F9F9F9"/>
</svg>
