<svg width="24" height="24" viewBox="0 0 16 16" fill="none" xmlns="http://www.w3.org/2000/svg">
  <defs>
    <clipPath id="clip0_328_3599">
      <rect width="16" height="16"/>
    </clipPath>
  </defs>
  <g clip-path="url(#clip0_328_3599)" fill-rule="evenodd" clip-rule="evenodd" fill="currentColor">
    <path d="M5.53079 2C6.37661 2 7.06157 2.6551 7.06157 3.46362C7.06157 4.11872 6.61212 4.67266 5.99185 4.85924L5.99019 7.76574H9.71681C9.89178 7.14132 10.488 6.68274 11.1954 6.68274C12.0412 6.68274 12.7261 7.33785 12.7261 8.14636C12.7261 8.95405 12.0412 9.60915 11.1954 9.60915C10.5071 9.60915 9.92495 9.17545 9.73257 8.5784H5.99019V10.7054C5.99019 11.5678 6.59139 12.266 7.52097 12.266H9.69028C9.82296 11.5869 10.4465 11.0728 11.1954 11.0728C12.0412 11.0728 12.7261 11.7279 12.7261 12.5364C12.7261 13.3449 12.0412 14 11.1954 14C10.551 14 9.99876 13.6185 9.7732 13.0795H7.52097C6.28125 13.0795 5.1228 12.1475 5.1228 10.9981L5.12197 4.87416C4.47516 4.70334 4 4.13613 4 3.46362C4 2.6551 4.68579 2 5.53079 2ZM11.1945 11.805C10.7724 11.805 10.43 12.1325 10.43 12.5364C10.43 12.9402 10.7724 13.2678 11.1954 13.2678C11.6183 13.2678 11.9607 12.9402 11.9607 12.5364C11.9607 12.1325 11.6183 11.805 11.1954 11.805H11.1945ZM11.1945 7.41414C10.7724 7.41414 10.43 7.74169 10.43 8.14636C10.43 8.5502 10.7724 8.87776 11.1954 8.87776C11.6183 8.87776 11.9607 8.5502 11.9607 8.14636C11.9607 7.74169 11.6183 7.41414 11.1954 7.41414H11.1945Z"/>
  </g>
</svg>
