<svg width="16" height="16" viewBox="0 0 16 16" fill="none" xmlns="http://www.w3.org/2000/svg">
<path d="M2.75084 13.2492V2H2V14H14V13.2492H2.75084Z" fill="currentColor"/>
<path d="M4.3658 11.7822H4.38684C4.64997 11.7762 4.8955 11.6681 5.07802 11.4778C5.26045 11.2875 5.35774 11.0377 5.35204 10.7754C5.34868 10.6132 5.30175 10.4631 5.22818 10.329L6.6769 8.54009C6.76623 8.56674 6.859 8.58593 6.95663 8.58593H6.97766C7.20401 8.58065 7.40789 8.4966 7.57196 8.36445L9.50841 9.44044C9.50355 9.48284 9.49794 9.52524 9.49869 9.56924C9.51034 10.1016 9.9533 10.5344 10.486 10.5344L10.5059 10.5341C10.769 10.5288 11.0142 10.4211 11.1971 10.2304C11.3795 10.0401 11.4768 9.79006 11.4711 9.52726C11.4673 9.34181 11.4087 9.16986 11.3138 9.02229L12.5853 7.22436C12.6552 7.24011 12.7265 7.25025 12.8001 7.25025H12.8223C13.0858 7.24422 13.3313 7.13653 13.5138 6.94581C13.6962 6.75584 13.7938 6.50578 13.7882 6.24223C13.7766 5.70986 13.3343 5.27735 12.7806 5.27735H12.7803C12.2377 5.28933 11.8049 5.74101 11.8158 6.28462C11.8196 6.47049 11.8785 6.64237 11.9728 6.79035L10.6989 8.59087C10.6238 8.57319 10.5462 8.56163 10.465 8.56163H10.4647C10.244 8.56615 10.0386 8.6461 9.86966 8.78235L7.93245 7.70562C7.93731 7.66355 7.94335 7.62148 7.9426 7.57757C7.93095 7.0452 7.48874 6.61269 6.93498 6.61269H6.93465C6.39138 6.6251 5.95855 7.07669 5.96977 7.62031C5.97312 7.78246 6.02005 7.93264 6.09404 8.06672L4.64305 9.85752C4.54844 9.82903 4.4493 9.80909 4.34455 9.80909L4.3443 9.809C3.80103 9.82141 3.3682 10.2734 3.37942 10.8174C3.39116 11.3493 3.83336 11.7822 4.36576 11.7822L4.3658 11.7822ZM12.8014 6.02839C12.9287 6.02839 13.0346 6.13163 13.0372 6.25851C13.0387 6.32161 13.015 6.38128 12.9715 6.42712C12.9279 6.47254 12.8693 6.4981 12.8059 6.4996H12.7998C12.6737 6.4996 12.569 6.39636 12.5663 6.26982C12.5638 6.13994 12.6674 6.03142 12.8014 6.0284L12.8014 6.02839ZM10.3151 9.38467C10.3582 9.34 10.4168 9.31411 10.4866 9.31293C10.6131 9.31293 10.7175 9.41584 10.7202 9.54346C10.7217 9.60615 10.698 9.66581 10.6545 9.71165C10.6113 9.75673 10.5527 9.78221 10.4904 9.78338L10.4855 9.78372C10.3579 9.78372 10.2516 9.68014 10.249 9.55319C10.2479 9.49017 10.2715 9.43008 10.3151 9.38466L10.3151 9.38467ZM6.95622 7.36341C7.08351 7.36341 7.18934 7.46699 7.19194 7.59394C7.19496 7.72425 7.0913 7.83235 6.96216 7.83537H6.95688C6.82925 7.83537 6.72332 7.73213 6.72073 7.60525C6.7178 7.47452 6.82137 7.36676 6.95621 7.36341H6.95622ZM4.36537 10.5594C4.493 10.5594 4.5985 10.6627 4.60109 10.7907C4.6026 10.8534 4.57973 10.9131 4.53581 10.9585C4.49224 11.0043 4.43333 11.0298 4.37098 11.0313L4.36578 11.0314C4.23849 11.0314 4.13266 10.9281 4.13006 10.8013C4.12738 10.671 4.23096 10.5628 4.36538 10.5594L4.36537 10.5594Z" fill="currentColor"/>
</svg>
