<svg width="4" height="13" viewBox="0 0 4 13" fill="none" xmlns="http://www.w3.org/2000/svg">
<path fill-rule="evenodd" clip-rule="evenodd" d="M2.00598 9.03093C2.83398 9.03093 3.50598 9.70293 3.50598 10.5309C3.50598 11.3589 2.83398 12.0309 2.00598 12.0309C1.17798 12.0309 0.505981 11.3589 0.505981 10.5309C0.505981 9.70293 1.17798 9.03093 2.00598 9.03093ZM2.00598 4.53093C2.83398 4.53093 3.50598 5.20293 3.50598 6.03093C3.50598 6.85893 2.83398 7.53093 2.00598 7.53093C1.17798 7.53093 0.505981 6.85893 0.505981 6.03093C0.505981 5.20293 1.17798 4.53093 2.00598 4.53093ZM2.00598 0.0309296C2.83398 0.0309296 3.50598 0.70293 3.50598 1.53093C3.50598 2.35893 2.83398 3.03093 2.00598 3.03093C1.17798 3.03093 0.505981 2.35893 0.505981 1.53093C0.505981 0.70293 1.17798 0.0309296 2.00598 0.0309296Z" fill="#F9F9F9"/>
</svg>
