<svg width="24" height="24" viewBox="0 0 16 16" fill="none" xmlns="http://www.w3.org/2000/svg">
  <g clip-path="url(#clip0_328_3668)" fill-rule="evenodd" clip-rule="evenodd" fill="currentColor">
    <path d="M9.2161 3C11.8584 3 14 5.14165 14 7.7839C14 10.4261 11.8584 12.5678 9.2161 12.5678C8.93334 12.5678 8.70354 12.338 8.70354 12.0552C8.70354 11.7725 8.93334 11.5427 9.2161 11.5427C11.292 11.5427 12.9749 9.85977 12.9749 7.7839C12.9749 5.70803 11.292 4.02512 9.2161 4.02512C7.14023 4.02512 5.45733 5.70803 5.45733 7.7839C5.45733 8.55274 5.68798 9.28399 6.10913 9.89992L6.11768 9.88539L7.26837 7.36103C7.36661 7.10305 7.6938 6.97661 7.9347 7.1133C8.17988 7.24998 8.24395 7.61646 8.16023 7.84968L6.52174 11.4402C6.4722 11.5504 6.3637 11.6452 6.25521 11.6896C6.13391 11.734 6.01346 11.728 5.8913 11.67L2.329 9.97082C2.11202 9.8555 1.9275 9.51891 2.0283 9.26178C2.12825 9.00379 2.48106 8.91153 2.6989 9.02258L5.05838 10.1511C4.65261 9.44118 4.43221 8.62962 4.43221 7.7839C4.43221 5.14165 6.57386 3 9.2161 3Z" />
  </g>
  <defs>
    <clipPath id="clip0_328_3668">
      <rect width="16" height="16"/>
    </clipPath>
  </defs>
</svg>
