<svg width="24" height="24" viewBox="0 0 16 16" fill="none" xmlns="http://www.w3.org/2000/svg">
  <g clip-path="url(#clip0_328_3607)" fill-rule="evenodd" clip-rule="evenodd" fill="currentColor">
    <path d="M10.8141 2C12.3234 2 13.5312 3.28637 13.5312 4.85656C13.5312 6.42736 12.3234 7.71434 10.8141 7.71434H5.72141C4.21265 7.71434 3 6.42736 3 4.85717C3 3.28637 4.21204 2 5.72141 2H10.8141V2ZM10.8141 2.57131H5.72141C4.53333 2.57131 3.56947 3.57817 3.56947 4.85656C3.56947 6.13556 4.53333 7.14303 5.72202 7.14303H10.8141C12.0021 7.14303 12.9617 6.13556 12.9617 4.85717C12.9617 3.57817 12.0021 2.57131 10.8141 2.57131V2.57131ZM5.93642 3.22863C6.87632 3.22863 7.64421 3.99959 7.64421 4.94256C7.64421 5.88615 6.87632 6.65711 5.93642 6.65711C4.99652 6.65711 4.22863 5.88615 4.22863 4.94318C4.22863 3.99959 4.99652 3.22863 5.93642 3.22863V3.22863ZM10.8141 8.28566C12.3234 8.28566 13.5312 9.57264 13.5312 11.1428C13.5312 12.7136 12.3234 14 10.8141 14H5.72141C4.21204 14 3 12.7136 3 11.1434C3 9.57264 4.21204 8.28566 5.72141 8.28566H10.8141V8.28566ZM10.8141 8.85697H5.72141C4.53333 8.85697 3.56947 9.86444 3.56947 11.1428C3.56947 12.4218 4.53333 13.4287 5.72202 13.4287H10.8141C12.0021 13.4287 12.9617 12.4218 12.9617 11.1434C12.9617 9.86444 12.0021 8.85697 10.8141 8.85697V8.85697ZM10.5425 9.42828C11.4824 9.42828 12.2503 10.1999 12.2503 11.1428C12.2503 12.0864 11.4824 12.8574 10.5425 12.8574C9.60264 12.8574 8.83475 12.0864 8.83475 11.1434C8.83475 10.1999 9.60264 9.42889 10.5425 9.42889V9.42828Z"/>
  </g>
  <defs>
    <clipPath id="clip0_328_3607">
      <rect width="16" height="16"/>
    </clipPath>
  </defs>
</svg>
