<svg width="24" height="24" viewBox="0 0 16 16" fill="none" xmlns="http://www.w3.org/2000/svg">
  <defs>
    <clipPath id="clip0_328_3619">
      <rect width="16" height="16"/>
    </clipPath>
  </defs>
  <g clip-path="url(#clip0_328_3619)" fill-rule="evenodd" clip-rule="evenodd" fill="currentColor">
    <path d="M10.0114 7.79206C10.2236 6.26302 10.1285 4.27035 9.86193 3.18077C8.70514 3.02975 5.18721 3.00408 4.41778 3.11734L4.32943 3.12791C4.1837 3.14226 4.13915 3.14905 4.07799 3.16944C3.86808 3.24042 3.74802 3.46468 3.77596 4.08233C3.78049 4.19031 3.72763 4.293 3.63702 4.35416C3.20436 4.64714 3.13791 4.97182 3.30629 5.53436C3.35991 5.7118 3.24438 5.8968 3.05712 5.93078C2.97406 5.94664 2.84569 6.11955 2.7868 6.36797C2.72563 6.6247 2.76263 6.85123 2.84796 6.92296C2.99293 7.04377 2.99898 7.26124 2.86004 7.3896C2.75961 7.48248 2.64711 7.77092 2.64711 7.9982C2.64711 8.4218 2.79208 8.60377 3.2187 8.67324C3.47921 8.71628 3.77596 8.74346 4.1014 8.7563C4.63977 8.77895 5.21968 8.76083 5.78674 8.71855C5.92568 8.70798 6.05253 8.69665 6.16428 8.68608L6.30095 8.67098C6.43083 8.65587 6.55768 8.71855 6.62187 8.82954C6.64225 8.86428 6.65735 8.90656 6.66717 8.95564C6.71625 9.19651 6.65962 9.6692 6.43762 10.4998C6.21034 11.3493 6.80158 12.1768 7.51588 12.4894C7.66539 12.5544 7.76506 12.5332 7.87757 12.4381L7.87379 12.3573C7.86624 12.1632 7.86247 11.9669 7.86473 11.7819C7.867 11.6271 7.87304 11.4882 7.88512 11.3689C7.95761 10.6191 8.10107 10.1947 8.54431 9.36339C8.6991 9.07495 8.93695 8.77744 9.23445 8.47616C9.41718 8.29117 9.612 8.11599 9.80605 7.95516C9.87401 7.89928 9.93744 7.84793 9.99482 7.80414L10.0114 7.79206ZM10.0854 8.55318C9.95329 8.6672 9.82342 8.78801 9.70034 8.91185C9.4421 9.17386 9.23974 9.42681 9.11666 9.65711C8.71118 10.4175 8.59339 10.7671 8.52921 11.4278C8.51939 11.5282 8.5141 11.6505 8.51184 11.7902C8.50957 11.9624 8.51335 12.1489 8.5209 12.3331L8.52996 12.5234C8.53374 12.5861 8.51788 12.6495 8.48466 12.7039C8.44539 12.7681 8.37894 12.8496 8.28229 12.9304C8.0082 13.1592 7.64802 13.2362 7.25085 13.0633C6.2783 12.6382 5.49151 11.5365 5.81091 10.3412C5.92568 9.91158 5.99288 9.58463 6.02308 9.33092L5.83658 9.34602C5.2461 9.38981 4.64204 9.40869 4.07421 9.38528C3.72386 9.37094 3.40068 9.34149 3.11073 9.29467C2.36244 9.17009 2 8.71779 2 7.99744C2 7.71353 2.09363 7.3964 2.23559 7.1593C1.96376 6.64433 2.15706 5.79788 2.61992 5.45357C2.49156 4.83666 2.62143 4.34359 3.12507 3.94113C3.12507 3.17397 3.38633 2.73602 3.86581 2.57443C3.99191 2.53139 4.06591 2.52082 4.26449 2.50119L4.32113 2.49439C5.11396 2.37736 8.37819 2.39397 9.76679 2.53668C9.80152 2.47476 9.8574 2.42342 9.92988 2.39548C11.0904 1.94469 11.4793 1.91071 13.3497 2.13573C13.4765 2.15083 13.5822 2.23691 13.6192 2.35546C14.1553 4.0627 14.0874 5.95192 13.6517 8.48825C13.6207 8.67173 13.4327 8.78877 13.2485 8.73969C12.2578 8.47994 11.6054 8.45729 10.2923 8.59849C10.2161 8.60679 10.1443 8.58867 10.0854 8.55318ZM13.0695 8.04803C13.4229 5.86886 13.472 4.20164 13.0582 2.73527C11.6326 2.56915 11.2483 2.58425 10.4494 2.87496C10.7726 4.04005 10.8881 6.25093 10.6442 7.93175C11.6288 7.84491 12.2767 7.87059 13.0695 8.04803Z"/>
  </g>
</svg>
