<svg width="24" height="24" viewBox="0 0 16 16" fill="none" xmlns="http://www.w3.org/2000/svg">
  <g fill-rule="evenodd" clip-rule="evenodd" fill="currentColor">
    <path d="M4.77062 6.30407C4.90437 6.08023 5.18008 5.98469 5.42302 6.07659L8.68229 7.31315C9.25826 7.53152 9.54851 8.17482 9.33014 8.75079C9.30648 8.81266 9.27736 8.87272 9.24279 8.93004C8.91977 9.4687 8.22097 9.6425 7.68231 9.31857C7.63044 9.28763 7.58222 9.25306 7.5349 9.21393L4.88436 6.97921C4.686 6.81179 4.63868 6.52517 4.77153 6.30315L4.77062 6.30407Z"/>
    <path d="M8.79424 3.16216C11.1218 3.58799 12.9188 5.61889 12.9188 7.99374C12.9188 10.708 10.7187 12.9072 8.00535 12.9072C5.29203 12.9072 3.09188 10.708 3.09188 7.99374C3.09188 7.02014 3.37577 6.0884 3.89988 5.29315C4.06639 5.04111 3.99632 4.70262 3.74519 4.53702C3.49315 4.37051 3.15467 4.44057 2.98906 4.6917C2.34758 5.6653 2 6.8045 2 7.99465C2 11.3112 4.68876 14 8.00535 14C11.3219 14 14.0107 11.3112 14.0107 7.99465C14.0107 4.84093 11.453 2.20403 8.28287 2.00112C7.96805 1.9811 7.70236 2.23133 7.70236 2.54615V5.26494C7.70236 5.56521 7.94621 5.81088 8.2483 5.81088C8.54947 5.81088 8.79424 5.56521 8.79424 5.26494V3.16307V3.16216Z"/>
  </g>
</svg>
