<svg width="24" height="24" viewBox="0 0 16 16" fill="none" xmlns="http://www.w3.org/2000/svg">
  <defs>
    <clipPath id="clip0_328_3658">
      <rect width="16" height="16"/>
    </clipPath>
  </defs>
  <g clip-path="url(#clip0_328_3658)" fill-rule="evenodd" clip-rule="evenodd" fill="currentColor">
    <path d="M11.2736 5.2664C11.3648 5.2712 11.4504 5.312 11.5112 5.3808C11.5728 5.4488 11.604 5.5392 11.5984 5.6312L11.144 13.0296C11.1112 13.5752 10.6616 14.0008 10.1184 14H5.48164C4.93924 14.0008 4.48964 13.576 4.45684 13.0296L4.00244 5.632C3.99684 5.5408 4.02724 5.4512 4.08804 5.3824C4.14804 5.3144 4.23284 5.2728 4.32324 5.2672C4.41444 5.2616 4.50324 5.2928 4.57124 5.3536C4.63924 5.4136 4.68084 5.4992 4.68564 5.5904L5.13684 12.9896C5.14804 13.1712 5.29684 13.3128 5.47844 13.3128H10.1152C10.296 13.3128 10.4464 13.1712 10.4568 12.9896L10.9112 5.5904C10.9168 5.4992 10.9576 5.4144 11.0256 5.3536C11.0936 5.2928 11.1832 5.2608 11.2736 5.2664ZM5.92964 6.6248C6.02004 6.6192 6.10964 6.6504 6.17764 6.7112C6.24564 6.772 6.28644 6.8576 6.29204 6.9488L6.56884 11.4608C6.58004 11.6504 6.43844 11.8128 6.25044 11.8264H6.22644C6.04724 11.8248 5.89924 11.6832 5.88884 11.5024L5.61204 6.9904C5.60004 6.8008 5.74164 6.6384 5.92964 6.6248ZM9.67124 6.6248C9.85844 6.6384 10.0008 6.8008 9.98884 6.9896L9.71204 11.5024C9.70084 11.6848 9.55204 11.8264 9.37044 11.8264L9.34644 11.8224C9.15924 11.8096 9.01684 11.6464 9.02884 11.4584L9.30884 6.9488C9.31444 6.8576 9.35524 6.772 9.42324 6.7112C9.49124 6.6504 9.58004 6.6192 9.67124 6.6248ZM7.79924 6.6048C7.98724 6.6048 8.14004 6.7584 8.14004 6.9488V11.4208C8.14004 11.6104 7.98804 11.7648 7.79844 11.7648C7.60964 11.7648 7.45684 11.6104 7.45684 11.4208V6.9488C7.45684 6.7584 7.61044 6.6048 7.79924 6.6048ZM7.79924 2C8.63204 2 9.34404 2.6056 9.48244 3.4328H11.556C12.0264 3.4136 12.4488 3.7184 12.5816 4.1728C12.612 4.264 12.6032 4.364 12.5576 4.448C12.5104 4.5328 12.432 4.5936 12.3384 4.616C12.3064 4.6216 12.2728 4.6216 12.24 4.616C12.0848 4.624 11.944 4.5248 11.8984 4.376C11.8568 4.2208 11.7144 4.1152 11.556 4.1208H4.04004C3.88084 4.1152 3.73924 4.2208 3.69844 4.3752C3.67204 4.4696 3.60804 4.5472 3.52084 4.5912C3.43444 4.6344 3.33364 4.6384 3.24404 4.6024C3.15604 4.576 3.08404 4.516 3.04084 4.4352C2.99764 4.3552 2.98804 4.26 3.01524 4.1728C3.14804 3.7184 3.57044 3.4136 4.03924 3.4328H6.11444C6.25284 2.6056 6.96564 2 7.79924 2ZM7.79924 2.6488C7.32884 2.6504 6.92004 2.9736 6.80724 3.4328H8.78964C8.67684 2.9736 8.26884 2.6504 7.79924 2.6488Z"/>
  </g>
</svg>
