<svg xmlns="http://www.w3.org/2000/svg" viewBox="0 0 16 16" fill="none" width="24" height="24">
  <defs>
    <clipPath id="clip0_328_3672">
      <rect width="16" height="16"/>
    </clipPath>
  </defs>
  <g clip-path="url(#clip0_328_3672)">
    <path fill-rule="evenodd" clip-rule="evenodd" d="M7.99972 5C11.314 5 14 8.19306 14 8.19306C14 8.19306 11.314 11.3861 7.99972 11.3861C4.68651 11.3861 2 8.19306 2 8.19306C2 8.19306 4.68651 5 7.99972 5ZM6.92545 5.43269L6.85049 5.44977C4.41477 6.02301 2.59033 8.1914 2.59033 8.1914C2.59033 8.1914 4.45336 10.4055 6.9271 10.9501C5.82307 10.5202 5.04093 9.44702 5.04093 8.19085C5.04093 6.93579 5.82196 5.86317 6.92545 5.43269ZM9.0751 5.43269L9.12581 5.45363C10.2017 5.89679 10.9596 6.95563 10.9596 8.19085C10.9596 9.44702 10.1769 10.5196 9.07345 10.9496C11.5472 10.405 13.4091 8.1914 13.4091 8.1914C13.4091 8.1914 11.5477 5.97837 9.0751 5.43269ZM8.00028 5.52088C6.53466 5.52088 5.34739 6.70814 5.34739 8.17321C5.34739 9.63828 6.53466 10.8261 7.99972 10.8261C9.46479 10.8261 10.6532 9.63828 10.6532 8.17321C10.6532 6.70814 9.46589 5.52088 8.00028 5.52088ZM7.99972 6.30743C8.19926 6.30743 8.39107 6.33885 8.57186 6.39617C8.56415 6.39617 8.55643 6.39396 8.54871 6.39396C8.15571 6.39396 7.83712 6.71255 7.83712 7.10555C7.83712 7.49855 8.15571 7.81714 8.54871 7.81714C8.94171 7.81714 9.2603 7.49855 9.2603 7.1061C9.2603 6.9402 9.20132 6.78972 9.10652 6.66846C9.57834 7.0113 9.8859 7.56525 9.8859 8.19306C9.8859 9.23481 9.04148 10.0787 7.99972 10.0787C6.95797 10.0787 6.1141 9.23481 6.1141 8.19361C6.1141 7.15185 6.95852 6.30743 7.99972 6.30743Z" fill="currentColor"/>
  </g>
</svg>
