<svg width="256" height="256" viewBox="0 0 256 256" fill="currentColor" xmlns="http://www.w3.org/2000/svg">
    <path d="M127.857 254.307C58.1321 254.307 1.40662 197.581 1.40662 127.857C1.40662 58.1321 58.1321 1.4066 127.857 1.4066C197.581 1.4066 254.307 58.1321 254.307 127.857C254.307 197.581 197.581 254.307 127.857 254.307ZM127.857 12.6466C64.3309 12.6466 12.6466 64.3309 12.6466 127.857C12.6466 191.382 64.3309 243.067 127.857 243.067C191.382 243.067 243.067 191.382 243.067 127.857C243.067 64.3309 191.382 12.6466 127.857 12.6466Z"/>
    <path d="M86.6733 111.384C95.7737 111.384 103.151 104.007 103.151 94.9065C103.151 85.8061 95.7737 78.4287 86.6733 78.4287C77.5728 78.4287 70.1954 85.8061 70.1954 94.9065C70.1954 104.007 77.5728 111.384 86.6733 111.384Z"/>
    <path d="M169.062 111.384C178.163 111.384 185.54 104.007 185.54 94.9065C185.54 85.8061 178.163 78.4287 169.062 78.4287C159.962 78.4287 152.585 85.8061 152.585 94.9065C152.585 104.007 159.962 111.384 169.062 111.384Z"/>
    <path d="M204.235 185.433C202.985 185.433 201.726 185.02 200.681 184.166C180.179 167.416 154.316 158.191 127.857 158.191C101.395 158.191 75.5344 167.416 55.0326 184.166C52.6329 186.133 49.0895 185.774 47.1253 183.371C45.1611 180.968 45.5179 177.428 47.9205 175.464C70.423 157.075 98.8124 146.951 127.857 146.951C156.901 146.951 185.287 157.078 207.793 175.461C210.195 177.425 210.552 180.966 208.588 183.368C207.478 184.728 205.862 185.433 204.235 185.433Z"/>
</svg>
