<svg width="117" height="130" viewBox="0 0 117 130" fill="currentColor" xmlns="http://www.w3.org/2000/svg">
    <defs>
        <clipPath id="clip0_3834_48619">
            <rect width="33.9265" height="38.258" fill="white" transform="translate(3.08398)"/>
        </clipPath>
    </defs>
    <path d="M39.4474 63.8558C43.6576 63.8558 47.0706 60.4416 47.0706 56.2299C47.0706 52.0182 43.6576 48.604 39.4474 48.604C35.2372 48.604 31.8242 52.0182 31.8242 56.2299C31.8242 60.4416 35.2372 63.8558 39.4474 63.8558Z" />
    <path d="M77.5636 63.8558C81.7738 63.8558 85.1868 60.4416 85.1868 56.2299C85.1868 52.0182 81.7738 48.604 77.5636 48.604C73.3535 48.604 69.9404 52.0182 69.9404 56.2299C69.9404 60.4416 73.3535 63.8558 77.5636 63.8558Z" />
    <path d="M93.8355 98.1255C93.257 98.1255 92.6746 97.9343 92.191 97.539C82.7062 89.7869 70.741 85.5175 58.5002 85.5175C46.2581 85.5175 34.2942 89.7869 24.8094 97.539C23.6992 98.4493 22.0599 98.2829 21.1512 97.171C20.2425 96.0591 20.4076 94.4205 21.5191 93.5115C31.9295 85.0012 45.0634 80.3157 58.5002 80.3157C71.937 80.3157 85.0696 85.0025 95.4813 93.5102C96.5928 94.4192 96.7579 96.0578 95.8492 97.1697C95.3357 97.7991 94.5882 98.1255 93.8355 98.1255Z" />
    <path fill-rule="evenodd" clip-rule="evenodd" d="M10.8056 47.689C9.16834 47.0719 7.60912 46.2956 6.14676 45.3789C2.21417 53.2408 0 62.1061 0 71.4791C0 103.747 26.2431 130 58.5 130C90.7569 130 117 103.747 117 71.4791C117 39.2107 90.7569 12.9583 58.5 12.9583C53.7951 12.9583 49.2182 13.5167 44.832 14.5709C45.392 16.1922 45.7976 17.8855 46.031 19.6333C50.0322 18.6703 54.2077 18.1601 58.5 18.1601C87.8891 18.1601 111.8 42.0795 111.8 71.4791C111.8 100.879 87.8891 124.798 58.5 124.798C29.1109 124.798 5.2 100.879 5.2 71.4791C5.2 62.9354 7.21932 54.8545 10.8056 47.689Z" />
    <g clip-path="url(#clip0_3834_48619)">
        <path d="M10.5811 6.55127H3.08398V35.8958H10.5811V6.55127Z" />
        <path d="M19.5537 8.91333H12.0566V38.2552H19.5537V8.91333Z" />
        <path d="M28.2823 5.19263H20.7852V34.5345H28.2823V5.19263Z" />
        <path d="M37.0103 0H29.5132V29.3419H37.0103V0Z" />
    </g>
</svg>
