<svg width="34" height="34" viewBox="0 0 34 34" fill="none" xmlns="http://www.w3.org/2000/svg">
<path fill-rule="evenodd" clip-rule="evenodd" d="M19.0476 2.83643C27.3056 2.83643 34 9.81264 34 18.4182C34 27.0238 27.3056 34 19.0476 34C10.7896 34 4.09522 27.0238 4.09522 18.4182C4.09522 17.9341 4.11641 17.4551 4.15788 16.9822C4.36245 16.9953 4.56794 17.0017 4.77488 17.0017C10.4053 17.0017 14.9697 12.2452 14.9697 6.37775C14.9697 5.39385 14.8413 4.44118 14.6011 3.53694C16.0057 3.08171 17.4992 2.83643 19.0476 2.83643ZM20.9808 10.6273L18.3464 10.6394L13.6104 23.9404L15.6682 25.8207L22.4863 22.4907L23.6035 25.6779L25.9375 24.799L20.9808 10.6273ZM18.4966 11.0607L18.6353 11.5063L14.3206 23.6318L13.9689 23.8007L18.4966 11.0607ZM18.7855 11.9277L18.9241 12.361L15.025 23.2933L14.6814 23.4584L18.7855 11.9277ZM19.0628 12.7946L19.2014 13.216L15.7263 22.9564L15.3646 23.1301L19.0628 12.7946ZM19.3517 13.6495L19.4903 14.0829L16.4292 22.6187L16.0822 22.7854L19.3517 13.6495ZM19.6671 14.4484L21.6322 20.0541L16.7882 22.4461L19.6671 14.4484ZM4.63617 2.97212V12.7555H2.52591V2.97212H4.63617ZM2.11026 2.18469V11.9682H0V2.18469H2.11026ZM7.09283 1.73134V11.5146H4.9827V1.73134H7.09283ZM9.54976 0V9.78322H7.43936V0H9.54976Z" fill="currentcolor"/>
</svg>
