<svg width="154" height="53" viewBox="0 0 154 53" fill="none" xmlns="http://www.w3.org/2000/svg">
<path fill-rule="evenodd" clip-rule="evenodd" d="M31.314 4.41893C44.6793 4.41893 55.514 15.2873 55.514 28.694C55.514 42.1008 44.6793 52.9692 31.314 52.9692C17.9487 52.9692 7.114 42.1008 7.114 28.694C7.114 27.9398 7.14829 27.1936 7.2154 26.4569C7.54649 26.4772 7.87908 26.4872 8.214 26.4872C17.3267 26.4872 24.714 19.077 24.714 9.936C24.714 8.40316 24.5063 6.91899 24.1175 5.51026C26.3908 4.80105 28.8079 4.41893 31.314 4.41893ZM34.4427 16.5565L30.1791 16.5752L22.514 37.2971L25.8445 40.2265L36.8793 35.0386L38.6876 40.004L42.465 38.6347L34.4427 16.5565ZM30.4222 17.2316L30.6466 17.9258L23.6635 36.8163L23.0943 37.0795L30.4222 17.2316ZM30.8897 18.5824L31.1141 19.2575L24.8034 36.289L24.2475 36.5462L30.8897 18.5824ZM31.3385 19.9329L31.5629 20.5895L25.9385 35.7642L25.3532 36.0348L31.3385 19.9329ZM31.8062 21.2648L32.0304 21.94L27.0762 35.238L26.5145 35.4978L31.8062 21.2648ZM32.3165 22.5094L35.497 31.2425L27.6572 34.9692L32.3165 22.5094ZM7.98951 4.63032V19.872H4.57411V4.63032H7.98951ZM3.9014 3.40357V18.6455H0.486V3.40357H3.9014ZM11.9655 2.69728V17.9387H8.55035V2.69728H11.9655ZM15.942 0V15.2414H12.5264V0H15.942Z" fill="currentcolor"/>
<path fill-rule="evenodd" clip-rule="evenodd" d="M60.6804 43.5629L61.2616 42.3035H66.0112L66.6124 43.5629H69.7788L63.8869 30.9691H63.3659L57.514 43.5629H60.6804ZM65.0092 40.1707H62.1835L63.5863 37.0832H63.6264L65.0092 40.1707ZM74.2937 43.5629V36.3113L78.9832 43.5629H82.0494V31.3754H79.1235V38.6066L74.454 31.3754H71.3477V43.5629H74.2937ZM86.7847 43.5629L87.3659 42.3035H92.1155L92.7167 43.5629H95.8831L89.9912 30.9691H89.4701L83.6183 43.5629H86.7847ZM91.1134 40.1707H88.2877L89.6906 37.0832H89.7306L91.1134 40.1707ZM105.629 43.5629V41.0035H100.398V31.3754H97.452V43.5629H105.629ZM111.506 43.5629V37.6722L115.775 31.3754H112.468L110.043 35.0316L107.638 31.3754H104.312L108.58 37.6722V43.5629H111.506ZM122.574 43.5629V34.016H125.3V31.3754H116.923V34.016H119.608V43.5629H122.574ZM129.895 43.5629V31.3754H126.949V43.5629H129.895ZM138.738 43.9691C140.963 43.9691 142.626 43.0144 143.829 41.7347L141.865 39.7847C141.023 40.6176 139.941 41.1457 138.738 41.1457C136.594 41.1457 135.211 39.5207 135.211 37.4691C135.211 35.4176 136.594 33.7926 138.738 33.7926C139.941 33.7926 141.023 34.3207 141.865 35.1535L143.889 33.2035C142.606 31.8426 141.023 30.9691 138.738 30.9691C134.931 30.9691 132.225 33.8332 132.225 37.4691C132.225 41.1051 134.931 43.9691 138.738 43.9691ZM149.446 43.9691C151.71 43.9691 153.514 42.1816 153.514 40.0285C153.514 38.1191 152.512 36.9004 150.368 36.2504C149.346 35.9457 148.243 35.7832 148.243 34.8691C148.243 34.0769 148.865 33.691 149.506 33.691C150.328 33.691 150.748 34.2597 150.748 34.9504H153.514C153.354 32.6957 152.091 30.9691 149.426 30.9691C147.161 30.9691 145.337 32.7566 145.337 34.9097C145.337 37.0019 146.46 37.9566 148.484 38.6879C149.466 39.0332 150.648 39.2972 150.648 40.2113C150.648 40.841 150.187 41.2676 149.446 41.2676C148.764 41.2676 148.203 40.6988 148.203 39.9879H145.337C145.337 42.1816 146.82 43.9691 149.446 43.9691Z" fill="currentcolor"/>
<path fill-rule="evenodd" clip-rule="evenodd" d="M65.4503 24.5629V20.0129L68.5065 24.5629H72.1819L68.946 20.0332C70.7237 19.5863 71.7824 18.3879 71.7824 16.2551C71.7824 13.9597 70.1045 12.3754 67.5277 12.3754H62.514V24.5629H65.4503ZM67.8074 17.6566H65.4503V14.9144H67.7275C68.3867 14.9144 68.906 15.5441 68.906 16.2551C68.906 16.966 68.4666 17.6566 67.8074 17.6566ZM81.6558 24.5629V22.0035H76.4423V19.8097H81.0565V17.2097H76.4423V15.016H81.4361V12.3754H73.506V24.5629H81.6558ZM85.8762 24.5629L86.4555 23.3035H91.1896L91.7888 24.5629H94.9449L89.0722 11.9691H88.5529L82.7202 24.5629H85.8762ZM90.1908 21.1707H87.3744L88.7726 18.0832H88.8126L90.1908 21.1707ZM101.323 24.9691C103.54 24.9691 105.198 24.0144 106.396 22.7347L104.439 20.7847C103.6 21.6176 102.521 22.1457 101.323 22.1457C99.1853 22.1457 97.807 20.5207 97.807 18.4691C97.807 16.4176 99.1853 14.7926 101.323 14.7926C102.521 14.7926 103.6 15.3207 104.439 16.1535L106.456 14.2035C105.178 12.8426 103.6 11.9691 101.323 11.9691C97.5274 11.9691 94.8308 14.8332 94.8308 18.4691C94.8308 22.1051 97.5274 24.9691 101.323 24.9691ZM113.233 24.5629V15.016H115.95V12.3754H107.601V15.016H110.277V24.5629H113.233ZM120.53 24.5629V12.3754H117.594V24.5629H120.53ZM127.627 24.9691L132.92 12.3754H129.864L127.447 18.2457L125.03 12.3754H121.974L127.267 24.9691H127.627ZM142.514 24.5629V22.0035H137.301V19.8097H141.915V17.2097H137.301V15.016H142.294V12.3754H134.364V24.5629H142.514Z" fill="currentcolor"/>
</svg>
