<svg width="56" height="53" viewBox="0 0 56 53" fill="none" xmlns="http://www.w3.org/2000/svg">
<path fill-rule="evenodd" clip-rule="evenodd" d="M30.828 4.41893C44.1933 4.41893 55.028 15.2873 55.028 28.694C55.028 42.1008 44.1933 52.9692 30.828 52.9692C17.4627 52.9692 6.628 42.1008 6.628 28.694C6.628 27.9398 6.66229 27.1936 6.7294 26.4569C7.06049 26.4772 7.39308 26.4872 7.728 26.4872C16.8407 26.4872 24.228 19.077 24.228 9.936C24.228 8.40316 24.0203 6.91899 23.6315 5.51026C25.9048 4.80105 28.3219 4.41893 30.828 4.41893ZM33.9567 16.5565L29.6931 16.5752L22.028 37.2971L25.3585 40.2265L36.3933 35.0386L38.2016 40.004L41.979 38.6347L33.9567 16.5565ZM29.9362 17.2316L30.1606 17.9258L23.1775 36.8163L22.6083 37.0795L29.9362 17.2316ZM30.4037 18.5824L30.6281 19.2575L24.3174 36.289L23.7615 36.5462L30.4037 18.5824ZM30.8525 19.9329L31.0769 20.5895L25.4525 35.7642L24.8672 36.0348L30.8525 19.9329ZM31.3202 21.2648L31.5444 21.94L26.5902 35.238L26.0285 35.4978L31.3202 21.2648ZM31.8305 22.5094L35.011 31.2425L27.1712 34.9692L31.8305 22.5094ZM7.50351 4.63032V19.872H4.08811V4.63032H7.50351ZM3.4154 3.40357V18.6455H0V3.40357H3.4154ZM11.4795 2.69728V17.9387H8.06435V2.69728H11.4795ZM15.456 0V15.2414H12.0404V0H15.456Z" fill="currentcolor"/>
</svg>
